<?xml version="1.0" encoding="UTF-8" standalone="no"?>
<!--

    SonarLint for IntelliJ IDEA
    Copyright (C) 2015-2023 SonarSource
    sonarlint@sonarsource.com

    This program is free software; you can redistribute it and/or
    modify it under the terms of the GNU Lesser General Public
    License as published by the Free Software Foundation; either
    version 3 of the License, or (at your option) any later version.

    This program is distributed in the hope that it will be useful,
    but WITHOUT ANY WARRANTY; without even the implied warranty of
    MERCHANTABILITY or FITNESS FOR A PARTICULAR PURPOSE.  See the GNU
    Lesser General Public License for more details.

    You should have received a copy of the GNU Lesser General Public
    License along with this program; if not, write to the Free Software
    Foundation, Inc., 51 Franklin Street, Fifth Floor, Boston, MA  02

-->

<svg
   xmlns:dc="http://purl.org/dc/elements/1.1/"
   xmlns:cc="http://creativecommons.org/ns#"
   xmlns:rdf="http://www.w3.org/1999/02/22-rdf-syntax-ns#"
   xmlns:svg="http://www.w3.org/2000/svg"
   xmlns="http://www.w3.org/2000/svg"
   xmlns:sodipodi="http://sodipodi.sourceforge.net/DTD/sodipodi-0.dtd"
   xmlns:inkscape="http://www.inkscape.org/namespaces/inkscape"
   height="16"
   width="16"
   version="1.1"
   id="svg3851"
   sodipodi:docname="hotspot_checked_dark.svg"
   inkscape:version="0.92.5 (2060ec1f9f, 2020-04-08)">
  <metadata
     id="metadata3857">
    <rdf:RDF>
      <cc:Work
         rdf:about="">
        <dc:format>image/svg+xml</dc:format>
        <dc:type
           rdf:resource="http://purl.org/dc/dcmitype/StillImage" />
        <dc:title></dc:title>
      </cc:Work>
    </rdf:RDF>
  </metadata>
  <defs
     id="defs3855" />
  <sodipodi:namedview
     pagecolor="#ffffff"
     bordercolor="#666666"
     borderopacity="1"
     objecttolerance="10"
     gridtolerance="10"
     guidetolerance="10"
     inkscape:pageopacity="0"
     inkscape:pageshadow="2"
     inkscape:window-width="1856"
     inkscape:window-height="1016"
     id="namedview3853"
     showgrid="false"
     inkscape:zoom="37.034718"
     inkscape:cx="11.104828"
     inkscape:cy="6.029818"
     inkscape:window-x="64"
     inkscape:window-y="27"
     inkscape:window-maximized="1"
     inkscape:current-layer="layer1" />
  <path
     d="M 12.864987,2.7801856 A 0.78739669,0.78739669 0 0 0 12.337423,2.1736454 L 8.2029985,1.0237461 a 0.83478265,0.83478265 0 0 0 -0.3933035,0 L 3.6736905,2.1736454 A 0.74001073,0.74001073 0 0 0 3.1461269,2.7801856 C 3.0829456,3.2287727 2.5632796,7.2147217 4.043301,9.3249764 a 7.0889395,7.0889395 0 0 0 3.7813996,2.7254826 0.66972156,0.66972156 0 0 0 0.1808564,0 0.61443794,0.61443794 0 0 0 0.1737485,0 7.0336559,7.0336559 0 0 0 3.7877175,-2.7246929 C 13.424141,7.2147217 12.920271,3.2287727 12.864987,2.7801856 Z M 11.392074,6.5371024 A 4.8436348,4.8436348 0 0 1 10.715244,8.4428078 6.2383615,6.2383615 0 0 1 8.0766359,10.475665 V 6.5371024 Z M 8.0766359,2.5985395 V 6.5371024 H 4.6032451 a 19.132081,19.132081 0 0 1 0,-3.0090084 z"
     style="opacity:0.8;fill:#9aa7b0;fill-opacity:1;stroke-width:0.78764391"
     id="path3849"
     inkscape:connector-curvature="0" />
  <g
     inkscape:groupmode="layer"
     id="layer1"
     inkscape:label="Mark">
    <polygon
       id="polygon4205"
       points="15.535,3.837 6.292,13.08 1.95,8.738 3.698,6.99 6.293,9.585 13.789,2.09 "
       style="fill:#499c54"
       transform="matrix(0.52506441,0,0,0.52511374,7.5391244,8.8005123)" />
  </g>
</svg>
