<?xml version="1.0" encoding="UTF-8"?>
<!--

    SonarLint for IntelliJ IDEA
    Copyright (C) 2015-2024 SonarSource
    sonarlint@sonarsource.com

    This program is free software; you can redistribute it and/or
    modify it under the terms of the GNU Lesser General Public
    License as published by the Free Software Foundation; either
    version 3 of the License, or (at your option) any later version.

    This program is distributed in the hope that it will be useful,
    but WITHOUT ANY WARRANTY; without even the implied warranty of
    MERCHANTABILITY or FITNESS FOR A PARTICULAR PURPOSE.  See the GNU
    Lesser General Public License for more details.

    You should have received a copy of the GNU Lesser General Public
    License along with this program; if not, write to the Free Software
    Foundation, Inc., 51 Franklin Street, Fifth Floor, Boston, MA  02

-->
<svg id="Layer_1" xmlns="http://www.w3.org/2000/svg" viewBox="0 0 16 16">
  <g>
    <path d="M14.55,8.45c-.25,0-.45-.2-.45-.45,0-3.36-2.73-6.09-6.09-6.09-.25,0-.45-.2-.45-.45s.2-.45.45-.45c3.86,0,7,3.14,7,7,0,.25-.2.45-.45.45Z" fill="#126ed3"/>
    <path d="M8,15c-3.86,0-7-3.14-7-7,0-.25.2-.45.45-.45s.45.2.45.45c0,3.36,2.73,6.09,6.09,6.09.25,0,.45.2.45.45s-.2.45-.45.45Z" fill="#126ed3"/>
    <path d="M9.96,8.45c-.25,0-.45-.2-.45-.45,0-.83-.68-1.51-1.51-1.51-.25,0-.45-.2-.45-.45s.2-.45.45-.45c1.33,0,2.42,1.08,2.42,2.42,0,.25-.2.45-.45.45Z" fill="#126ed3"/>
    <path d="M8,10.42c-1.33,0-2.42-1.08-2.42-2.42,0-.25.2-.45.45-.45s.45.2.45.45c0,.83.68,1.51,1.51,1.51.25,0,.45.2.45.45s-.2.45-.45.45Z" fill="#126ed3"/>
    <path d="M12.26,8.45c-.25,0-.45-.2-.45-.45,0-2.1-1.71-3.8-3.8-3.8-.25,0-.45-.2-.45-.45s.2-.45.45-.45c2.6,0,4.71,2.11,4.71,4.71,0,.25-.2.45-.45.45Z" fill="#126ed3"/>
    <path d="M8,12.71c-2.6,0-4.71-2.11-4.71-4.71,0-.25.2-.45.45-.45s.45.2.45.45c0,2.1,1.71,3.8,3.8,3.8.25,0,.45.2.45.45s-.2.45-.45.45Z" fill="#126ed3"/>
  </g>
  <g>
    <path d="M11.12,14.71c-.17,0-.32-.06-.44-.18l-1.77-1.77c-.24-.24-.24-.64,0-.88.12-.12.27-.18.44-.18s.32.06.44.18l1.33,1.33,3.14-3.14c.12-.12.27-.18.44-.18s.32.07.44.18.18.27.18.44-.06.32-.18.44l-3.58,3.58c-.12.12-.27.18-.44.18Z" fill="#3c8835"/>
    <path d="M14.7,10.13c.1,0,.19.04.26.11.15.15.15.38,0,.53l-3.58,3.58c-.07.07-.17.11-.26.11s-.19-.04-.26-.11l-1.77-1.77c-.15-.15-.15-.38,0-.53.07-.07.17-.11.26-.11s.19.04.26.11l1.5,1.5,3.32-3.32c.07-.07.17-.11.26-.11M14.7,9.63c-.23,0-.45.09-.62.26l-2.96,2.96-1.15-1.15c-.16-.16-.38-.26-.62-.26s-.45.09-.62.26c-.16.16-.26.38-.26.62s.09.45.26.62l1.77,1.77c.16.16.38.26.62.26s.45-.09.62-.26l3.58-3.58c.16-.16.26-.38.26-.62s-.09-.45-.26-.62c-.16-.16-.38-.26-.62-.26h0Z" fill="#fff"/>
  </g>
</svg>