<!--

    SonarLint for IntelliJ IDEA
    Copyright (C) 2015-2024 SonarSource
    sonarlint@sonarsource.com

    This program is free software; you can redistribute it and/or
    modify it under the terms of the GNU Lesser General Public
    License as published by the Free Software Foundation; either
    version 3 of the License, or (at your option) any later version.

    This program is distributed in the hope that it will be useful,
    but WITHOUT ANY WARRANTY; without even the implied warranty of
    MERCHANTABILITY or FITNESS FOR A PARTICULAR PURPOSE.  See the GNU
    Lesser General Public License for more details.

    You should have received a copy of the GNU Lesser General Public
    License along with this program; if not, write to the Free Software
    Foundation, Inc., 51 Franklin Street, Fifth Floor, Boston, MA  02

-->
<svg width="16" height="16" viewBox="0 0 16 16" fill="none" xmlns="http://www.w3.org/2000/svg">
<path d="M14.5501 8.45001C14.3001 8.45001 14.1001 8.25001 14.1001 8.00001C14.1001 4.64001 11.3701 1.91001 8.01006 1.91001C7.76006 1.91001 7.56006 1.71001 7.56006 1.46001C7.56006 1.21001 7.76006 1.01001 8.01006 1.01001C11.8701 1.01001 15.0101 4.15001 15.0101 8.01001C15.0101 8.26001 14.8101 8.46001 14.5601 8.46001L14.5501 8.45001Z" fill="white"/>
<path d="M8 15C4.14 15 1 11.86 1 7.99999C1 7.74999 1.2 7.54999 1.45 7.54999C1.7 7.54999 1.9 7.74999 1.9 7.99999C1.9 11.36 4.63 14.09 7.99 14.09C8.24 14.09 8.44 14.29 8.44 14.54C8.44 14.79 8.24 14.99 7.99 14.99L8 15Z" fill="white"/>
<path d="M9.96005 8.45003C9.71005 8.45003 9.51005 8.25003 9.51005 8.00003C9.51005 7.17003 8.83005 6.49003 8.00005 6.49003C7.75005 6.49003 7.55005 6.29003 7.55005 6.04003C7.55005 5.79003 7.75005 5.59003 8.00005 5.59003C9.33005 5.59003 10.42 6.67003 10.42 8.01003C10.42 8.26003 10.22 8.46003 9.97005 8.46003L9.96005 8.45003Z" fill="white"/>
<path d="M8.00008 10.42C6.67008 10.42 5.58008 9.33999 5.58008 7.99999C5.58008 7.74999 5.78008 7.54999 6.03008 7.54999C6.28008 7.54999 6.48008 7.74999 6.48008 7.99999C6.48008 8.82999 7.16008 9.50999 7.99008 9.50999C8.24008 9.50999 8.44008 9.70999 8.44008 9.95999C8.44008 10.21 8.24008 10.41 7.99008 10.41L8.00008 10.42Z" fill="white"/>
<path d="M12.2601 8.44999C12.0101 8.44999 11.8101 8.24999 11.8101 7.99999C11.8101 5.89999 10.1001 4.19999 8.01006 4.19999C7.76006 4.19999 7.56006 3.99999 7.56006 3.74999C7.56006 3.49999 7.76006 3.29999 8.01006 3.29999C10.6101 3.29999 12.7201 5.40999 12.7201 8.00999C12.7201 8.25999 12.5201 8.45999 12.2701 8.45999L12.2601 8.44999Z" fill="white"/>
<path d="M8.00004 12.71C5.40004 12.71 3.29004 10.6 3.29004 7.99999C3.29004 7.74999 3.49004 7.54999 3.74004 7.54999C3.99004 7.54999 4.19004 7.74999 4.19004 7.99999C4.19004 10.1 5.90004 11.8 7.99004 11.8C8.24004 11.8 8.44004 12 8.44004 12.25C8.44004 12.5 8.24004 12.7 7.99004 12.7L8.00004 12.71Z" fill="white"/>
<path d="M11.8191 16C11.6498 16 11.5005 15.9403 11.3811 15.8208L9.61912 14.0589C9.38021 13.82 9.38021 13.4218 9.61912 13.1829C9.73858 13.0635 9.88789 13.0037 10.0571 13.0037C10.2263 13.0037 10.3757 13.0635 10.4951 13.1829L11.8191 14.5069L14.9448 11.3811C15.0642 11.2617 15.2135 11.202 15.3828 11.202C15.552 11.202 15.7013 11.2716 15.8208 11.3811C15.9402 11.4906 15.9999 11.6499 15.9999 11.8191C15.9999 11.9884 15.9402 12.1377 15.8208 12.2571L12.2571 15.8208C12.1376 15.9403 11.9883 16 11.8191 16Z" fill="#499C54"/>
</svg>
