<?xml version="1.0" encoding="UTF-8" standalone="no"?>
<svg width="26" height="26" xmlns:xlink="http://www.w3.org/1999/xlink" xmlns="http://www.w3.org/2000/svg"><g transform="matrix(.0665 0 0 .06656 -4.003 -4)"><defs><path id="a" d="M0 0h512v512H0z"/></defs><clipPath id="b"><use xlink:href="#a" width="100%" height="100%" overflow="visible"/></clipPath><path d="M255.7 450.7c-107.8 0-195.5-87.6-195.5-195.3 0-107.7 87.7-195.3 195.5-195.3s195.5 87.6 195.5 195.3c0 107.7-87.7 195.3-195.5 195.3m0-355.2c-88.2 0-160 71.7-160 159.8 0 88.1 71.8 159.8 160 159.8s160-71.7 160-159.8c0-88.1-71.8-159.8-160-159.8" clip-path="url(#b)" fill="#cb2029"/></g><path d="M22.103 12.301c-.339-.679-.764-1.53-1.602-1.53-.831 0-1.257.844-1.603 1.53-.319.632-.499.965-.897.965-.4 0-.579-.333-.898-.965-.34-.679-.765-1.53-1.603-1.53s-1.257.844-1.602 1.53c-.32.632-.499.965-.898.965s-.579-.333-.898-.965c-.339-.679-.764-1.53-1.602-1.53-.838 0-1.257.844-1.603 1.53-.319.632-.499.965-.898.965-.398 0-.578-.333-.897-.965-.34-.679-.765-1.53-1.603-1.53-.831 0-1.257.805-1.596 1.483 0 0-.259.58-.372.852-.113.273-.552 1.312-.153 1.811.226.28.552-.12.738-.413.14-.226.472-.878.472-.878.34-.606.519-.932.911-.932.4 0 .579.333.898.965.34.679.765 1.531 1.602 1.531.832 0 1.257-.845 1.603-1.531.32-.632.499-.965.898-.965s.578.333.897.965c.34.679.765 1.531 1.603 1.531.831 0 1.257-.845 1.603-1.531.319-.632.498-.965.897-.965.4 0 .579.333.898.965.34.679.765 1.531 1.603 1.531.837 0 1.256-.845 1.602-1.531.32-.632.499-.965.898-.965s.578.333.897.965c0 0 .147.286.36.659.093.153.438.739.744.719.273-.02.373-.885.067-1.644-.206-.506-.466-1.092-.466-1.092z" fill="#cb2029"/></svg>
