<!--

    SonarLint for IntelliJ IDEA
    Copyright (C) 2015-2025 SonarSource Sàrl
    sonarlint@sonarsource.com

    This program is free software; you can redistribute it and/or
    modify it under the terms of the GNU Lesser General Public
    License as published by the Free Software Foundation; either
    version 3 of the License, or (at your option) any later version.

    This program is distributed in the hope that it will be useful,
    but WITHOUT ANY WARRANTY; without even the implied warranty of
    MERCHANTABILITY or FITNESS FOR A PARTICULAR PURPOSE.  See the GNU
    Lesser General Public License for more details.

    You should have received a copy of the GNU Lesser General Public
    License along with this program; if not, write to the Free Software
    Foundation, Inc., 51 Franklin Street, Fifth Floor, Boston, MA  02

-->
<svg width="17" height="17" viewBox="0 0 17 17" fill="none" xmlns="http://www.w3.org/2000/svg">
<path d="M15.0412 9.06288C15.0412 9.42009 14.6314 9.63216 14.3464 9.41708C14.0328 9.18019 13.8327 8.80644 13.6703 8.50262C13.4477 8.08675 13.2981 7.83482 13.0988 7.83482C12.8995 7.83482 12.7498 8.0875 12.5272 8.50262C12.2678 8.98692 11.9128 9.64946 11.1555 9.64946C10.3982 9.64946 10.0433 8.98617 9.78459 8.50187C9.56274 8.08675 9.41309 7.83407 9.2138 7.83407C9.01452 7.83407 8.86637 8.08675 8.64377 8.50187C8.38507 8.98617 8.03087 9.64946 7.27358 9.64946C6.51629 9.64946 6.16133 8.98617 5.90263 8.50187C5.68079 8.08675 5.53113 7.83407 5.3326 7.83407C5.13406 7.83407 4.98441 8.08675 4.76256 8.50187C4.50387 8.98617 4.14891 9.64946 3.39237 9.64946C2.63584 9.64946 2.28088 8.98617 2.02218 8.50187C1.86651 8.21083 1.74694 8.00026 1.6206 7.90024C1.52133 7.82128 1.45215 7.71224 1.45215 7.5859V7.51446C1.45215 7.15724 1.862 6.94442 2.14777 7.16025C2.46061 7.39714 2.66065 7.7709 2.82309 8.07471C3.04494 8.48983 3.19459 8.74251 3.39313 8.74251C3.59166 8.74251 3.74131 8.48983 3.96316 8.07471C4.22186 7.59041 4.57681 6.92712 5.33335 6.92712C6.08989 6.92712 6.44485 7.59041 6.70354 8.07471C6.92539 8.48983 7.07504 8.74251 7.27358 8.74251C7.47211 8.74251 7.62176 8.48983 7.84361 8.07471C8.10231 7.59041 8.45651 6.92712 9.2138 6.92712C9.97109 6.92712 10.326 7.59041 10.5847 8.07471C10.8066 8.48983 10.9562 8.74251 11.1555 8.74251C11.3548 8.74251 11.5045 8.48983 11.7271 8.07471C11.9865 7.59041 12.3407 6.92788 13.0988 6.92788C13.8568 6.92788 14.211 7.59116 14.4705 8.07471C14.6261 8.36575 14.7457 8.57632 14.872 8.67709C14.9713 8.75605 15.0412 8.86509 15.0412 8.99219V9.06363V9.06288Z" fill="white"/>
<path d="M8.36473 15.2874C6.72682 15.2874 5.16938 14.7257 3.91425 13.6871C3.7127 13.5202 3.69616 13.2156 3.87664 13.0253C4.04134 12.8516 4.31131 12.8373 4.49556 12.99C5.62961 13.927 7.04568 14.4181 8.53243 14.3775C10.0169 14.3376 11.4067 13.7728 12.4896 12.7764C12.6656 12.6147 12.9355 12.614 13.1093 12.7787C13.2995 12.9592 13.2988 13.2645 13.1063 13.442C11.8616 14.5888 10.2636 15.2385 8.5565 15.2844C8.49258 15.2859 8.42865 15.2874 8.36473 15.2874Z" fill="white"/>
<path d="M3.63072 3.79265C3.44046 3.61217 3.44121 3.30609 3.63448 3.12786C4.91668 1.94944 6.54256 1.33353 8.18348 1.28991C9.8244 1.24629 11.4811 1.77421 12.8235 2.8827C13.0258 3.04965 13.0431 3.35497 12.8626 3.54599C12.6986 3.71971 12.4287 3.73399 12.2444 3.58208C11.0863 2.62626 9.66046 2.16677 8.2459 2.19535C6.80502 2.22468 5.37467 2.76087 4.24888 3.79566C4.07291 3.95735 3.80369 3.95659 3.63072 3.79265Z" fill="white"/>
</svg>
