<!--

    SonarLint for IntelliJ IDEA
    Copyright (C) 2015-2025 SonarSource
    sonarlint@sonarsource.com

    This program is free software; you can redistribute it and/or
    modify it under the terms of the GNU Lesser General Public
    License as published by the Free Software Foundation; either
    version 3 of the License, or (at your option) any later version.

    This program is distributed in the hope that it will be useful,
    but WITHOUT ANY WARRANTY; without even the implied warranty of
    MERCHANTABILITY or FITNESS FOR A PARTICULAR PURPOSE.  See the GNU
    Lesser General Public License for more details.

    You should have received a copy of the GNU Lesser General Public
    License along with this program; if not, write to the Free Software
    Foundation, Inc., 51 Franklin Street, Fifth Floor, Boston, MA  02

-->
<svg width="17" height="17" viewBox="0 0 17 17" fill="none" xmlns="http://www.w3.org/2000/svg">
<path d="M15.1367 8.87854C14.8867 8.87854 14.6867 8.67854 14.6867 8.42854C14.6867 5.06854 11.9567 2.33854 8.59673 2.33854C8.34673 2.33854 8.14673 2.13854 8.14673 1.88854C8.14673 1.63854 8.34673 1.43854 8.59673 1.43854C12.4567 1.43854 15.5967 4.57854 15.5967 8.43854C15.5967 8.68854 15.3967 8.88854 15.1467 8.88854L15.1367 8.87854Z" fill="#126ED3"/>
<path d="M8.58667 15.4285C4.72667 15.4285 1.58667 12.2885 1.58667 8.42852C1.58667 8.17852 1.78667 7.97852 2.03667 7.97852C2.28667 7.97852 2.48667 8.17852 2.48667 8.42852C2.48667 11.7885 5.21667 14.5185 8.57667 14.5185C8.82667 14.5185 9.02667 14.7185 9.02667 14.9685C9.02667 15.2185 8.82667 15.4185 8.57667 15.4185L8.58667 15.4285Z" fill="#126ED3"/>
<path d="M10.5467 8.87855C10.2967 8.87855 10.0967 8.67855 10.0967 8.42855C10.0967 7.59855 9.41672 6.91855 8.58672 6.91855C8.33672 6.91855 8.13672 6.71855 8.13672 6.46855C8.13672 6.21855 8.33672 6.01855 8.58672 6.01855C9.91672 6.01855 11.0067 7.09855 11.0067 8.43855C11.0067 8.68855 10.8067 8.88855 10.5567 8.88855L10.5467 8.87855Z" fill="#126ED3"/>
<path d="M8.58675 10.8485C7.25675 10.8485 6.16675 9.76852 6.16675 8.42852C6.16675 8.17852 6.36675 7.97852 6.61675 7.97852C6.86675 7.97852 7.06675 8.17852 7.06675 8.42852C7.06675 9.25852 7.74675 9.93852 8.57675 9.93852C8.82675 9.93852 9.02675 10.1385 9.02675 10.3885C9.02675 10.6385 8.82675 10.8385 8.57675 10.8385L8.58675 10.8485Z" fill="#126ED3"/>
<path d="M12.8467 8.87852C12.5967 8.87852 12.3967 8.67852 12.3967 8.42852C12.3967 6.32852 10.6867 4.62852 8.59673 4.62852C8.34673 4.62852 8.14673 4.42852 8.14673 4.17852C8.14673 3.92852 8.34673 3.72852 8.59673 3.72852C11.1967 3.72852 13.3067 5.83852 13.3067 8.43852C13.3067 8.68852 13.1067 8.88852 12.8567 8.88852L12.8467 8.87852Z" fill="#126ED3"/>
<path d="M8.58671 13.1385C5.98671 13.1385 3.87671 11.0285 3.87671 8.42852C3.87671 8.17852 4.07671 7.97852 4.32671 7.97852C4.57671 7.97852 4.77671 8.17852 4.77671 8.42852C4.77671 10.5285 6.48671 12.2285 8.57671 12.2285C8.82671 12.2285 9.02671 12.4285 9.02671 12.6785C9.02671 12.9285 8.82671 13.1285 8.57671 13.1285L8.58671 13.1385Z" fill="#126ED3"/>
</svg>
