<!--

    SonarLint for IntelliJ IDEA
    Copyright (C) 2015-2024 SonarSource
    sonarlint@sonarsource.com

    This program is free software; you can redistribute it and/or
    modify it under the terms of the GNU Lesser General Public
    License as published by the Free Software Foundation; either
    version 3 of the License, or (at your option) any later version.

    This program is distributed in the hope that it will be useful,
    but WITHOUT ANY WARRANTY; without even the implied warranty of
    MERCHANTABILITY or FITNESS FOR A PARTICULAR PURPOSE.  See the GNU
    Lesser General Public License for more details.

    You should have received a copy of the GNU Lesser General Public
    License along with this program; if not, write to the Free Software
    Foundation, Inc., 51 Franklin Street, Fifth Floor, Boston, MA  02

-->
<svg width="33" height="32" viewBox="0 0 33 32" fill="none" xmlns="http://www.w3.org/2000/svg">
<path d="M30.4294 17.5509C30.4294 18.2653 29.6097 18.6895 29.0397 18.2593C28.4125 17.7856 28.0124 17.038 27.6875 16.4304C27.2423 15.5987 26.943 15.0948 26.5445 15.0948C26.1459 15.0948 25.8466 15.6002 25.4014 16.4304C24.8825 17.399 24.1726 18.7241 22.658 18.7241C21.1434 18.7241 20.4335 17.3975 19.9161 16.4289C19.4724 15.5987 19.1731 15.0933 18.7745 15.0933C18.376 15.0933 18.0797 15.5987 17.6345 16.4289C17.1171 17.3975 16.4087 18.7241 14.8941 18.7241C13.3795 18.7241 12.6696 17.3975 12.1522 16.4289C11.7085 15.5987 11.4092 15.0933 11.0121 15.0933C10.6151 15.0933 10.3157 15.5987 9.87205 16.4289C9.35466 17.3975 8.64475 18.7241 7.13167 18.7241C5.6186 18.7241 4.90868 17.3975 4.39129 16.4289C4.07995 15.8468 3.84081 15.4257 3.58813 15.2257C3.38959 15.0677 3.25122 14.8496 3.25122 14.597V14.4541C3.25122 13.7397 4.07093 13.314 4.64247 13.7457C5.26815 14.2195 5.66823 14.967 5.99311 15.5746C6.4368 16.4048 6.73611 16.9102 7.13318 16.9102C7.53025 16.9102 7.82955 16.4048 8.27325 15.5746C8.79064 14.606 9.50055 13.2794 11.0136 13.2794C12.5267 13.2794 13.2366 14.606 13.754 15.5746C14.1977 16.4048 14.497 16.9102 14.8941 16.9102C15.2911 16.9102 15.5905 16.4048 16.0341 15.5746C16.5515 14.606 17.2599 13.2794 18.7745 13.2794C20.2891 13.2794 20.999 14.606 21.5164 15.5746C21.9601 16.4048 22.2594 16.9102 22.658 16.9102C23.0566 16.9102 23.3559 16.4048 23.8011 15.5746C24.32 14.606 25.0284 13.2809 26.5445 13.2809C28.0605 13.2809 28.7689 14.6075 29.2878 15.5746C29.5992 16.1567 29.8383 16.5778 30.091 16.7793C30.2895 16.9373 30.4294 17.1554 30.4294 17.4095V17.5524V17.5509Z" fill="#126ED3"/>
<path d="M17.0764 30C13.8006 30 10.6857 28.8765 8.17541 26.7994C7.77233 26.4655 7.73924 25.8564 8.10021 25.4758C8.4296 25.1284 8.96955 25.0998 9.33805 25.4052C11.6062 27.2792 14.4383 28.2613 17.4118 28.1801C20.3808 28.1004 23.1603 26.9709 25.3261 24.978C25.6781 24.6546 26.218 24.6531 26.5654 24.9825C26.946 25.3435 26.9445 25.9541 26.5594 26.3091C24.0702 28.6028 20.8741 29.9023 17.4599 29.994C17.3321 29.997 17.2042 30 17.0764 30Z" fill="#126ED3"/>
<path d="M7.60836 7.01047C7.22784 6.6495 7.22934 6.03735 7.61588 5.68089C10.1803 3.32404 13.432 2.09223 16.7139 2.00499C19.9957 1.91776 23.3091 2.9736 25.9939 5.19057C26.3985 5.52447 26.4331 6.13512 26.0721 6.51715C25.7442 6.86458 25.2043 6.89316 24.8358 6.58934C22.5195 4.67769 19.6678 3.75872 16.8387 3.81587C13.957 3.87453 11.0963 4.94692 8.84469 7.01649C8.49274 7.33986 7.95429 7.33836 7.60836 7.01047Z" fill="#126ED3"/>
</svg>
