<?xml version="1.0" encoding="UTF-8" standalone="no"?>
<!-- Generator: Adobe Illustrator 23.0.3, SVG Export Plug-In . SVG Version: 6.00 Build 0)  -->

<svg
   version="1.1"
   id="Calque_1"
   x="0px"
   y="0px"
   viewBox="0 0 12.999999 13"
   xml:space="preserve"
   sodipodi:docname="sonarlintToolWindow.svg"
   width="13"
   height="13"
   inkscape:version="1.1 (c68e22c387, 2021-05-23)"
   xmlns:inkscape="http://www.inkscape.org/namespaces/inkscape"
   xmlns:sodipodi="http://sodipodi.sourceforge.net/DTD/sodipodi-0.dtd"
   xmlns:xlink="http://www.w3.org/1999/xlink"
   xmlns="http://www.w3.org/2000/svg"
   xmlns:svg="http://www.w3.org/2000/svg"><defs
   id="defs326" /><sodipodi:namedview
   id="namedview324"
   pagecolor="#ffffff"
   bordercolor="#666666"
   borderopacity="1.0"
   inkscape:pageshadow="2"
   inkscape:pageopacity="0.0"
   inkscape:pagecheckerboard="0"
   showgrid="false"
   fit-margin-top="0"
   fit-margin-left="0"
   fit-margin-right="0"
   fit-margin-bottom="0"
   inkscape:zoom="27.28125"
   inkscape:cx="-7.954181"
   inkscape:cy="2.8591065"
   inkscape:window-width="2560"
   inkscape:window-height="1357"
   inkscape:window-x="0"
   inkscape:window-y="0"
   inkscape:window-maximized="1"
   inkscape:current-layer="Calque_1" />
<style
   type="text/css"
   id="style309">
	.st0{clip-path:url(#SVGID_2_);fill:#CB2029;}
	.st1{fill:#CB2029;}
</style>
<g
   id="g319"
   transform="matrix(0.03324808,0,0,0.03328213,-2.0015344,-2.000256)">
	<defs
   id="defs312">
		<rect
   id="SVGID_1_"
   width="512"
   height="512"
   x="0"
   y="0" />
	</defs>
	<clipPath
   id="SVGID_2_">
		<use
   xlink:href="#SVGID_1_"
   style="overflow:visible"
   id="use314"
   x="0"
   y="0"
   width="100%"
   height="100%" />
	</clipPath>
	<path
   class="st0"
   d="M 255.7,450.7 C 147.9,450.7 60.2,363.1 60.2,255.4 60.2,147.7 147.9,60.1 255.7,60.1 c 107.8,0 195.5,87.6 195.5,195.3 0,107.7 -87.7,195.3 -195.5,195.3 m 0,-355.2 c -88.2,0 -160,71.7 -160,159.8 0,88.1 71.8,159.8 160,159.8 88.2,0 160,-71.7 160,-159.8 0,-88.1 -71.8,-159.8 -160,-159.8"
   clip-path="url(#SVGID_2_)"
   id="path317" />
</g>
<path
   class="st1"
   d="m 11.051656,6.150544 c -0.16956,-0.33948 -0.38235,-0.76549 -0.80128,-0.76549 -0.4156004,0 -0.6283904,0.42268 -0.8012804,0.76549 -0.15959,0.31618 -0.24936,0.48259 -0.44884,0.48259 -0.19949,0 -0.28926,-0.16641 -0.44885,-0.48259 -0.16957,-0.33948 -0.38236,-0.76549 -0.80128,-0.76549 -0.41893,0 -0.62839,0.42268 -0.80128,0.76549 -0.15959,0.31618 -0.24936,0.48259 -0.44885,0.48259 -0.19949,0 -0.28926,-0.16641 -0.44885,-0.48259 -0.16956,-0.33948 -0.38235,-0.76549 -0.80128,-0.76549 -0.41892,0 -0.62839,0.42268 -0.80128,0.76549 -0.15959,0.31618 -0.24936,0.48259 -0.44885,0.48259 -0.19948,0 -0.28925,-0.16641 -0.44884,-0.48259 -0.16957,-0.33948 -0.38236,-0.76549 -0.80128,-0.76549 -0.4156,0 -0.62839,0.40271 -0.79796,0.74219 0,0 -0.12967,0.28955 -0.18619,0.42601 -0.0565,0.13646 -0.27596,0.65566 -0.0765,0.90528 0.11305,0.13978 0.27596,-0.0599 0.36906,-0.20635 0.0698,-0.11316 0.23606,-0.43933 0.23606,-0.43933 0.16956,-0.30287 0.25933,-0.46595 0.4555,-0.46595 0.19948,0 0.28925,0.16641 0.44885,0.48259 0.16956,0.33948 0.38235,0.76549 0.80127,0.76549 0.41561,0 0.62839,-0.42268 0.80128,-0.76549 0.15959,-0.31618 0.24936,-0.48259 0.44885,-0.48259 0.19949,0 0.28926,0.16641 0.44885,0.48259 0.16957,0.33948 0.38235,0.76549 0.80128,0.76549 0.4156,0 0.62839,-0.42268 0.80128,-0.76549 0.15959,-0.31618 0.24936,-0.48259 0.44885,-0.48259 0.19949,0 0.28926,0.16641 0.44885,0.48259 0.16956,0.33948 0.38235,0.76549 0.80128,0.76549 0.41892,0 0.62838,-0.42268 0.80127,-0.76549 0.1596,-0.31618 0.2493704,-0.48259 0.4488504,-0.48259 0.19949,0 0.28926,0.16641 0.44885,0.48259 0,0 0.0731,0.14312 0.17954,0.3295 0.0465,0.0765 0.21944,0.36943 0.37238,0.35944 0.13632,-0.01 0.18619,-0.44265 0.0333,-0.82207 -0.10307,-0.25294 -0.23274,-0.54582 -0.23274,-0.54582 z"
   id="path321"
   style="stroke-width:0.0332651" />
</svg>
