<!--

    SonarLint for IntelliJ IDEA
    Copyright (C) 2015-2024 SonarSource
    sonarlint@sonarsource.com

    This program is free software; you can redistribute it and/or
    modify it under the terms of the GNU Lesser General Public
    License as published by the Free Software Foundation; either
    version 3 of the License, or (at your option) any later version.

    This program is distributed in the hope that it will be useful,
    but WITHOUT ANY WARRANTY; without even the implied warranty of
    MERCHANTABILITY or FITNESS FOR A PARTICULAR PURPOSE.  See the GNU
    Lesser General Public License for more details.

    You should have received a copy of the GNU Lesser General Public
    License along with this program; if not, write to the Free Software
    Foundation, Inc., 51 Franklin Street, Fifth Floor, Boston, MA  02

-->
<svg width="17" height="17" viewBox="0 0 17 17" fill="none" xmlns="http://www.w3.org/2000/svg">
<path d="M9.94463 5.36952C9.56019 4.99108 9.0556 4.78685 8.51197 4.79285C8.26268 4.79285 8.06445 5.00009 8.06445 5.24638C8.06445 5.49267 8.26869 5.6939 8.51498 5.6939C8.51798 5.6939 8.52399 5.6939 8.52999 5.6939C9.1397 5.6939 9.64128 6.18947 9.64729 6.79918C9.64729 7.04547 9.85153 7.2467 10.0978 7.2467H10.1008C10.3501 7.2467 10.5483 7.03946 10.5483 6.79318C10.5423 6.25555 10.3291 5.74796 9.94463 5.37253V5.36952Z" fill="white"/>
<path d="M8.58422 2.06564C8.60224 2.06564 8.61725 2.06564 8.63227 2.06564C10.951 2.06564 12.9363 3.78364 13.2636 6.0783C13.2967 6.30356 13.4889 6.46575 13.7082 6.46575C13.7292 6.46575 13.7502 6.46575 13.7712 6.46275C14.0175 6.42671 14.1887 6.19844 14.1527 5.95216C13.7622 3.21598 11.3925 1.1676 8.62927 1.1676C8.61125 1.1676 8.59323 1.1676 8.5752 1.1676C8.32591 1.1676 8.12769 1.37484 8.12769 1.62113C8.12769 1.86741 8.33192 2.06865 8.57821 2.06865L8.58422 2.06564Z" fill="white"/>
<path d="M12.3866 7.09949C12.4287 6.02424 12.0442 4.93698 11.2243 4.12003C9.66549 2.56123 7.13054 2.56123 5.57474 4.12003C4.77281 4.92197 4.36433 5.99721 4.41239 7.11451C3.74562 7.28571 3.11188 7.62811 2.58927 8.15071C1.03046 9.70952 1.03046 12.2445 2.58927 13.8003C3.36718 14.5782 4.39136 14.9686 5.41555 14.9686C6.43974 14.9686 7.46093 14.5782 8.24183 13.8003C8.30491 13.7372 8.36197 13.6681 8.42204 13.602C9.15489 14.44 10.2271 14.9716 11.4255 14.9716C13.6301 14.9716 15.4202 13.1785 15.4202 10.977C15.4202 9.13886 14.1407 7.535 12.3866 7.09949ZM11.4255 14.0736C9.71955 14.0736 8.33194 12.686 8.33194 10.98C8.33194 10.7307 8.13071 10.5295 7.88142 10.5295C7.63213 10.5295 7.43089 10.7307 7.43089 10.98C7.43089 11.6498 7.59909 12.2805 7.89043 12.8362C7.80332 12.9533 7.71022 13.0644 7.60509 13.1695C6.39769 14.3769 4.43341 14.3769 3.22902 13.1695C2.02161 11.9621 2.02161 10.0009 3.22902 8.79346C4.43642 7.58606 6.39769 7.58606 7.60509 8.79346C7.7823 8.97066 8.06763 8.97066 8.24183 8.79346C8.41604 8.61625 8.41904 8.33092 8.24183 8.15672C7.4339 7.34878 6.36466 6.96434 5.30442 6.99437C5.29241 6.1594 5.61078 5.36047 6.21148 4.76278C7.41888 3.55538 9.38015 3.55538 10.5876 4.76278C11.795 5.97018 11.795 7.93446 10.5876 9.13886C10.4104 9.31607 10.4104 9.6014 10.5876 9.7756C10.6747 9.8627 10.7918 9.90775 10.9059 9.90775C11.0201 9.90775 11.1372 9.8627 11.2243 9.7756C11.7349 9.26501 12.0743 8.65229 12.2485 8.00354C13.564 8.36997 14.5191 9.58938 14.5191 10.983C14.5191 12.689 13.1315 14.0766 11.4255 14.0766V14.0736Z" fill="white"/>
</svg>
