<!--

    SonarLint for IntelliJ IDEA
    Copyright (C) 2015-2025 SonarSource
    sonarlint@sonarsource.com

    This program is free software; you can redistribute it and/or
    modify it under the terms of the GNU Lesser General Public
    License as published by the Free Software Foundation; either
    version 3 of the License, or (at your option) any later version.

    This program is distributed in the hope that it will be useful,
    but WITHOUT ANY WARRANTY; without even the implied warranty of
    MERCHANTABILITY or FITNESS FOR A PARTICULAR PURPOSE.  See the GNU
    Lesser General Public License for more details.

    You should have received a copy of the GNU Lesser General Public
    License along with this program; if not, write to the Free Software
    Foundation, Inc., 51 Franklin Street, Fifth Floor, Boston, MA  02

-->
<svg width="20" height="20" viewBox="0 0 20 20" fill="none" xmlns="http://www.w3.org/2000/svg">
<g clip-path="url(#clip0_65_91)">
<path d="M1.69067 9.0176C2.59717 9.67712 2.49235 11.1986 3.59457 11.1986C4.85437 11.1986 5.00021 8.74854 6.16714 8.74854C7.45718 8.74854 7.33217 11.2322 8.72863 11.1986C9.93687 11.1695 9.9646 8.74854 11.2622 8.74854C12.5599 8.74854 12.4662 11.2291 13.8627 11.1986C15.2279 11.1688 15.0525 8.74854 16.3573 8.74854C17.5991 8.74854 17.487 10.3414 18.2836 10.9473" stroke="#6C707E" stroke-width="1.53846" stroke-linecap="round" stroke-linejoin="round"/>
<path fill-rule="evenodd" clip-rule="evenodd" d="M4.08445 4.0837C4.36176 4.40555 4.84747 4.44164 5.16931 4.16433C7.75814 1.93369 11.9692 1.7837 14.8612 4.17432C15.1886 4.445 15.6735 4.39897 15.9442 4.07153C16.2149 3.74409 16.1688 3.25921 15.8414 2.98854C12.3717 0.120391 7.32234 0.278404 4.16507 2.99884C3.84323 3.27615 3.80713 3.76186 4.08445 4.0837Z" fill="#6C707E"/>
<path d="M12.5986 18.7358C9.81167 19.5363 6.60701 19.0118 4.17711 17.0032C3.84966 16.7325 3.80363 16.2477 4.07431 15.9202C4.34498 15.5928 4.82985 15.5467 5.15729 15.8174C7.15524 17.4689 9.7827 17.908 12.0699 17.2861C12.1624 17.8056 12.3441 18.2943 12.5986 18.7358Z" fill="#6C707E"/>
<circle cx="16.5" cy="16.5" r="3.5" fill="#DB5860"/>
</g>
<defs>
<clipPath id="clip0_65_91">
<rect width="20" height="20" fill="white"/>
</clipPath>
</defs>
</svg>
