<!--

    SonarLint for IntelliJ IDEA
    Copyright (C) 2015-2025 SonarSource
    sonarlint@sonarsource.com

    This program is free software; you can redistribute it and/or
    modify it under the terms of the GNU Lesser General Public
    License as published by the Free Software Foundation; either
    version 3 of the License, or (at your option) any later version.

    This program is distributed in the hope that it will be useful,
    but WITHOUT ANY WARRANTY; without even the implied warranty of
    MERCHANTABILITY or FITNESS FOR A PARTICULAR PURPOSE.  See the GNU
    Lesser General Public License for more details.

    You should have received a copy of the GNU Lesser General Public
    License along with this program; if not, write to the Free Software
    Foundation, Inc., 51 Franklin Street, Fifth Floor, Boston, MA  02

-->
<svg width="13" height="13" viewBox="0 0 13 13" fill="none" xmlns="http://www.w3.org/2000/svg">
<g clip-path="url(#clip0_45_244)">
<path fill-rule="evenodd" clip-rule="evenodd" d="M2.81064 7.42449C2.60218 7.65351 2.3011 7.8637 1.88666 7.8637C1.55384 7.8637 1.28702 7.74158 1.08299 7.54574C0.899358 7.36948 0.782071 7.14717 0.69833 6.97483C0.665525 6.90732 0.637475 6.84695 0.611379 6.79078C0.56026 6.68075 0.516639 6.58687 0.459468 6.48709C0.381217 6.35052 0.305806 6.2586 0.221011 6.19691C-0.00228485 6.03445 -0.0516022 5.72173 0.110858 5.49843C0.273318 5.27514 0.586036 5.22582 0.809332 5.38828C1.05104 5.56413 1.21107 5.78737 1.32713 5.98993C1.40616 6.12787 1.47973 6.28585 1.53895 6.41303C1.56062 6.45957 1.58037 6.50198 1.59777 6.53778C1.67602 6.69883 1.72955 6.78022 1.77548 6.82431C1.80101 6.84881 1.82249 6.8637 1.88666 6.8637C1.92598 6.8637 1.97835 6.85327 2.0711 6.75137C2.17563 6.63653 2.27313 6.46938 2.40112 6.23868C2.40818 6.22595 2.41537 6.21296 2.42268 6.19974C2.53309 6.00023 2.6726 5.74812 2.84412 5.5486C3.03668 5.3246 3.32715 5.09877 3.73984 5.09877C4.16554 5.09877 4.46372 5.31629 4.66455 5.5599C4.8349 5.76656 4.96285 6.0267 5.06066 6.22557C5.06794 6.24037 5.07505 6.25484 5.082 6.26892C5.1973 6.50239 5.2812 6.65955 5.37506 6.7641C5.44861 6.84601 5.49964 6.86561 5.57301 6.86384C5.59574 6.8633 5.63695 6.86074 5.72203 6.75877C5.81943 6.64204 5.90679 6.4767 6.03089 6.24068L6.03332 6.23607C6.14283 6.02779 6.2867 5.75417 6.48078 5.53777C6.69135 5.30297 6.99357 5.09877 7.41015 5.09877C7.83484 5.09877 8.13445 5.31373 8.33812 5.55548C8.51192 5.76179 8.64359 6.02173 8.74459 6.22111C8.7518 6.23535 8.75886 6.24929 8.76577 6.26287C8.88436 6.49615 8.97091 6.65455 9.06743 6.76053C9.14426 6.8449 9.19814 6.86544 9.27249 6.86382C9.34171 6.86231 9.39271 6.8414 9.46551 6.75554C9.55685 6.6478 9.63608 6.4907 9.74679 6.25822C9.7517 6.2479 9.7567 6.23738 9.76178 6.22667C9.85647 6.02736 9.98217 5.76279 10.1564 5.55252C10.3595 5.30734 10.6582 5.09877 11.0804 5.09877C11.4261 5.09877 11.7083 5.21523 11.9283 5.41312C12.1309 5.59533 12.2569 5.82589 12.3456 6.01126C12.3836 6.09081 12.4199 6.17348 12.4524 6.24752C12.4585 6.26138 12.4644 6.27495 12.4703 6.28813C12.5089 6.37595 12.5434 6.45215 12.5794 6.52194C12.653 6.66473 12.7141 6.74161 12.7707 6.78466C12.9905 6.95183 13.0332 7.26553 12.866 7.48532C12.6988 7.70511 12.3851 7.74778 12.1653 7.58061C11.935 7.40546 11.7911 7.17525 11.6905 6.98015C11.6394 6.881 11.5945 6.78055 11.5551 6.69129C11.5483 6.67572 11.5416 6.66057 11.5351 6.64577C11.5026 6.57166 11.4739 6.5064 11.4435 6.44284C11.3688 6.28679 11.3114 6.20321 11.2596 6.15664C11.2253 6.12575 11.182 6.09877 11.0804 6.09877C11.0327 6.09877 10.9947 6.10813 10.9264 6.19053C10.8386 6.29653 10.7622 6.45188 10.6496 6.68816L10.6418 6.70457C10.5445 6.90906 10.4142 7.18294 10.2283 7.40222C10.0188 7.64929 9.71681 7.85436 9.29431 7.86358C8.86566 7.87294 8.55073 7.67835 8.32807 7.43385C8.12701 7.21307 7.98419 6.93212 7.8774 6.72205L7.87436 6.71607C7.75221 6.47581 7.6688 6.31309 7.57334 6.19978C7.49532 6.10717 7.45284 6.09877 7.41015 6.09877C7.35934 6.09877 7.30852 6.11257 7.22525 6.20543C7.12691 6.31507 7.03682 6.47631 6.91599 6.70609C6.90902 6.71934 6.90192 6.73289 6.89467 6.74672C6.79107 6.94435 6.65842 7.1974 6.48986 7.39942C6.29719 7.63034 6.00951 7.85363 5.59706 7.86356C5.16745 7.87389 4.85251 7.67892 4.63097 7.43218C4.43138 7.20988 4.29174 6.92709 4.1879 6.71681L4.18538 6.71171C4.06633 6.47064 3.98581 6.30866 3.89293 6.19599C3.81784 6.1049 3.77879 6.09877 3.73984 6.09877L3.73883 6.09875C3.72925 6.09854 3.69082 6.09766 3.60243 6.20048C3.50084 6.31867 3.40673 6.48737 3.27557 6.72379L3.27291 6.7286C3.15647 6.93848 3.00582 7.21004 2.81064 7.42449Z" fill="#59A869"/>
<path fill-rule="evenodd" clip-rule="evenodd" d="M2.28068 10.7915C2.46094 10.5823 2.77665 10.5588 2.98584 10.7391C4.87071 12.3632 7.93368 12.4715 10.0373 10.7326C10.2501 10.5567 10.5653 10.5866 10.7412 10.7994C10.9172 11.0123 10.8873 11.3275 10.6744 11.5034C8.19532 13.5527 4.58745 13.4392 2.33308 11.4967C2.12388 11.3164 2.10042 11.0007 2.28068 10.7915Z" fill="#59A869"/>
<path fill-rule="evenodd" clip-rule="evenodd" d="M10.7345 2.20311C10.5543 2.4123 10.2386 2.43576 10.0294 2.2555C8.1445 0.631365 5.08153 0.523085 2.9779 2.26197C2.76506 2.43791 2.4499 2.40799 2.27396 2.19515C2.09803 1.98231 2.12794 1.66714 2.34078 1.49121C4.81989 -0.558053 8.42776 -0.444588 10.6821 1.49795C10.8913 1.6782 10.9148 1.99392 10.7345 2.20311Z" fill="#59A869"/>
</g>
<defs>
<clipPath id="clip0_45_244">
<rect width="13" height="13" fill="white"/>
</clipPath>
</defs>
</svg>
