<?xml version="1.0" encoding="UTF-8" standalone="no"?>
<!-- Generator: Adobe Illustrator 23.0.3, SVG Export Plug-In . SVG Version: 6.00 Build 0)  -->

<svg
   version="1.1"
   id="Calque_1"
   x="0px"
   y="0px"
   viewBox="0 0 31.999998 32"
   xml:space="preserve"
   sodipodi:docname="sonarlintAction@2x.svg"
   width="32"
   height="32"
   inkscape:version="1.1 (c68e22c387, 2021-05-23)"
   xmlns:inkscape="http://www.inkscape.org/namespaces/inkscape"
   xmlns:sodipodi="http://sodipodi.sourceforge.net/DTD/sodipodi-0.dtd"
   xmlns:xlink="http://www.w3.org/1999/xlink"
   xmlns="http://www.w3.org/2000/svg"
   xmlns:svg="http://www.w3.org/2000/svg"><defs
   id="defs269" /><sodipodi:namedview
   id="namedview267"
   pagecolor="#ffffff"
   bordercolor="#666666"
   borderopacity="1.0"
   inkscape:pageshadow="2"
   inkscape:pageopacity="0.0"
   inkscape:pagecheckerboard="0"
   showgrid="false"
   fit-margin-top="2"
   fit-margin-left="2"
   fit-margin-right="2"
   fit-margin-bottom="2"
   inkscape:zoom="27.28125"
   inkscape:cx="16.421535"
   inkscape:cy="14.368843"
   inkscape:window-width="2560"
   inkscape:window-height="1357"
   inkscape:window-x="0"
   inkscape:window-y="0"
   inkscape:window-maximized="1"
   inkscape:current-layer="Calque_1" />
<style
   type="text/css"
   id="style252">
	.st0{clip-path:url(#SVGID_2_);fill:#CB2029;}
	.st1{fill:#CB2029;}
</style>
<g
   id="g262"
   transform="matrix(0.07161125,0,0,0.07168459,-2.3109973,-2.3082439)">
	<defs
   id="defs255">
		<rect
   id="SVGID_1_"
   width="512"
   height="512"
   x="0"
   y="0" />
	</defs>
	<clipPath
   id="SVGID_2_">
		<use
   xlink:href="#SVGID_1_"
   style="overflow:visible"
   id="use257"
   x="0"
   y="0"
   width="100%"
   height="100%" />
	</clipPath>
	<path
   class="st0"
   d="M 255.7,450.7 C 147.9,450.7 60.2,363.1 60.2,255.4 60.2,147.7 147.9,60.1 255.7,60.1 c 107.8,0 195.5,87.6 195.5,195.3 0,107.7 -87.7,195.3 -195.5,195.3 m 0,-355.2 c -88.2,0 -160,71.7 -160,159.8 0,88.1 71.8,159.8 160,159.8 88.2,0 160,-71.7 160,-159.8 0,-88.1 -71.8,-159.8 -160,-159.8"
   clip-path="url(#SVGID_2_)"
   id="path260" />
</g>
<path
   class="st1"
   d="m 25.803583,15.247306 c -0.36522,-0.73118 -0.82353,-1.64874 -1.72583,-1.64874 -0.89514,0 -1.35345,0.91039 -1.72583,1.64874 -0.34374,0.68101 -0.53709,1.03943 -0.96675,1.03943 -0.42967,0 -0.62302,-0.35842 -0.96676,-1.03943 -0.36521,-0.73118 -0.82353,-1.64874 -1.72583,-1.64874 -0.9023,0 -1.35345,0.91039 -1.72583,1.64874 -0.34373,0.68101 -0.53708,1.03943 -0.96675,1.03943 -0.42967,0 -0.62302,-0.35842 -0.96675,-1.03943 -0.36522,-0.73118 -0.82353,-1.64874 -1.72583,-1.64874 -0.9023,0 -1.35346,0.91039 -1.72583,1.64874 -0.34374,0.68101 -0.53709,1.03943 -0.96676,1.03943 -0.42966,0 -0.6230102,-0.35842 -0.9667502,-1.03943 -0.36522,-0.73118 -0.82353,-1.64874 -1.72583,-1.64874 -0.89514,0 -1.35345,0.86738 -1.71867,1.59856 0,0 -0.27928,0.62366 -0.40102,0.91757 -0.12174,0.2939 -0.59438,1.41218 -0.16471,1.94982 0.24348,0.30107 0.59438,-0.12904 0.79489,-0.44445 0.15038,-0.24373 0.50844,-0.94623 0.50844,-0.94623 0.36521,-0.65233 0.55856,-1.00359 0.98107,-1.00359 0.42967,0 0.62302,0.35842 0.96675,1.03943 0.36522,0.73118 0.82353,1.64874 1.7258302,1.64874 0.89514,0 1.35346,-0.91039 1.72583,-1.64874 0.34374,-0.68101 0.53709,-1.03943 0.96676,-1.03943 0.42966,0 0.62301,0.35842 0.96675,1.03943 0.36522,0.73118 0.82353,1.64874 1.72583,1.64874 0.89514,0 1.35345,-0.91039 1.72583,-1.64874 0.34374,-0.68101 0.53709,-1.03943 0.96675,-1.03943 0.42967,0 0.62302,0.35842 0.96676,1.03943 0.36521,0.73118 0.82352,1.64874 1.72583,1.64874 0.9023,0 1.35345,-0.91039 1.72583,-1.64874 0.34373,-0.68101 0.53708,-1.03943 0.96675,-1.03943 0.42967,0 0.62302,0.35842 0.96675,1.03943 0,0 0.15755,0.30824 0.3867,0.70967 0.10026,0.16488 0.47264,0.7957 0.80205,0.7742 0.2936,-0.0215 0.40102,-0.95341 0.0716,-1.77061 -0.222,-0.5448 -0.50128,-1.17563 -0.50128,-1.17563 z"
   id="path264"
   style="stroke-width:0.0716479" />
</svg>
