<!--

    SonarLint for IntelliJ IDEA
    Copyright (C) 2015-2025 SonarSource Sàrl
    sonarlint@sonarsource.com

    This program is free software; you can redistribute it and/or
    modify it under the terms of the GNU Lesser General Public
    License as published by the Free Software Foundation; either
    version 3 of the License, or (at your option) any later version.

    This program is distributed in the hope that it will be useful,
    but WITHOUT ANY WARRANTY; without even the implied warranty of
    MERCHANTABILITY or FITNESS FOR A PARTICULAR PURPOSE.  See the GNU
    Lesser General Public License for more details.

    You should have received a copy of the GNU Lesser General Public
    License along with this program; if not, write to the Free Software
    Foundation, Inc., 51 Franklin Street, Fifth Floor, Boston, MA  02

-->
<svg width="32" height="32" viewBox="0 0 32 32" fill="none" xmlns="http://www.w3.org/2000/svg">
<path d="M29.5893 17.5509C29.5893 18.2653 28.7696 18.6895 28.1996 18.2593C27.5724 17.7856 27.1723 17.038 26.8474 16.4304C26.4022 15.5987 26.1029 15.0948 25.7044 15.0948C25.3058 15.0948 25.0065 15.6002 24.5613 16.4304C24.0424 17.399 23.3325 18.7241 21.8179 18.7241C20.3033 18.7241 19.5934 17.3975 19.076 16.4289C18.6323 15.5987 18.333 15.0933 17.9344 15.0933C17.5359 15.0933 17.2396 15.5987 16.7944 16.4289C16.277 17.3975 15.5686 18.7241 14.054 18.7241C12.5394 18.7241 11.8295 17.3975 11.3121 16.4289C10.8684 15.5987 10.5691 15.0933 10.172 15.0933C9.77497 15.0933 9.47566 15.5987 9.03196 16.4289C8.51457 17.3975 7.80466 18.7241 6.29158 18.7241C4.77851 18.7241 4.0686 17.3975 3.5512 16.4289C3.23986 15.8468 3.00072 15.4257 2.74804 15.2257C2.54951 15.0677 2.41113 14.8496 2.41113 14.597V14.4541C2.41113 13.7397 3.23084 13.314 3.80238 13.7457C4.42806 14.2195 4.82814 14.967 5.15302 15.5746C5.59671 16.4048 5.89602 16.9102 6.29309 16.9102C6.69016 16.9102 6.98946 16.4048 7.43316 15.5746C7.95055 14.606 8.66046 13.2794 10.1735 13.2794C11.6866 13.2794 12.3965 14.606 12.9139 15.5746C13.3576 16.4048 13.6569 16.9102 14.054 16.9102C14.4511 16.9102 14.7504 16.4048 15.1941 15.5746C15.7115 14.606 16.4199 13.2794 17.9344 13.2794C19.449 13.2794 20.1589 14.606 20.6763 15.5746C21.12 16.4048 21.4193 16.9102 21.8179 16.9102C22.2165 16.9102 22.5158 16.4048 22.961 15.5746C23.4799 14.606 24.1883 13.2809 25.7044 13.2809C27.2205 13.2809 27.9289 14.6075 28.4478 15.5746C28.7591 16.1567 28.9982 16.5778 29.2509 16.7793C29.4495 16.9373 29.5893 17.1554 29.5893 17.4095V17.5524V17.5509Z" fill="white"/>
<path d="M16.2363 30C12.9605 30 9.84559 28.8765 7.33533 26.7994C6.93224 26.4655 6.89915 25.8564 7.26012 25.4758C7.58951 25.1284 8.12947 25.0998 8.49796 25.4052C10.7661 27.2792 13.5982 28.2613 16.5717 28.1801C19.5407 28.1004 22.3202 26.9709 24.486 24.978C24.838 24.6546 25.3779 24.6531 25.7254 24.9825C26.1059 25.3435 26.1044 25.9541 25.7193 26.3091C23.2301 28.6028 20.034 29.9023 16.6198 29.994C16.492 29.997 16.3641 30 16.2363 30Z" fill="white"/>
<path d="M6.76827 7.01047C6.38775 6.6495 6.38925 6.03735 6.77579 5.68089C9.3402 3.32404 12.592 2.09223 15.8738 2.00499C19.1556 1.91776 22.4691 2.9736 25.1538 5.19057C25.5584 5.52447 25.593 6.13512 25.232 6.51715C24.9041 6.86458 24.3642 6.89316 23.9957 6.58934C21.6794 4.67769 18.8278 3.75872 15.9986 3.81587C13.1169 3.87453 10.2562 4.94692 8.0046 7.01649C7.65266 7.33986 7.11421 7.33836 6.76827 7.01047Z" fill="white"/>
</svg>
