<?xml version="1.0" encoding="UTF-8" standalone="no"?>
<!-- Generator: Adobe Illustrator 23.0.3, SVG Export Plug-In . SVG Version: 6.00 Build 0)  -->

<svg
   version="1.1"
   id="Calque_1"
   x="0px"
   y="0px"
   viewBox="0 0 16.000002 15.999998"
   xml:space="preserve"
   sodipodi:docname="sonarlintAction.svg"
   width="16"
   height="16"
   inkscape:version="1.1 (c68e22c387, 2021-05-23)"
   xmlns:inkscape="http://www.inkscape.org/namespaces/inkscape"
   xmlns:sodipodi="http://sodipodi.sourceforge.net/DTD/sodipodi-0.dtd"
   xmlns:xlink="http://www.w3.org/1999/xlink"
   xmlns="http://www.w3.org/2000/svg"
   xmlns:svg="http://www.w3.org/2000/svg"><defs
   id="defs223" /><sodipodi:namedview
   id="namedview221"
   pagecolor="#ffffff"
   bordercolor="#666666"
   borderopacity="1.0"
   inkscape:pageshadow="2"
   inkscape:pageopacity="0.0"
   inkscape:pagecheckerboard="0"
   showgrid="false"
   fit-margin-top="1"
   fit-margin-left="1"
   fit-margin-right="1"
   fit-margin-bottom="1"
   inkscape:zoom="38.581514"
   inkscape:cx="18.376677"
   inkscape:cy="11.58586"
   inkscape:window-width="2560"
   inkscape:window-height="1357"
   inkscape:window-x="0"
   inkscape:window-y="0"
   inkscape:window-maximized="1"
   inkscape:current-layer="Calque_1" />
<style
   type="text/css"
   id="style206">
	.st0{clip-path:url(#SVGID_2_);fill:#CB2029;}
	.st1{fill:#CB2029;}
</style>
<g
   id="g216"
   transform="matrix(0.03580563,0,0,0.03584229,-1.1554989,-1.1541216)">
	<defs
   id="defs209">
		<rect
   id="SVGID_1_"
   width="512"
   height="512"
   x="0"
   y="0" />
	</defs>
	<clipPath
   id="SVGID_2_">
		<use
   xlink:href="#SVGID_1_"
   style="overflow:visible"
   id="use211"
   x="0"
   y="0"
   width="100%"
   height="100%" />
	</clipPath>
	<path
   class="st0"
   d="M 255.7,450.7 C 147.9,450.7 60.2,363.1 60.2,255.4 60.2,147.7 147.9,60.1 255.7,60.1 c 107.8,0 195.5,87.6 195.5,195.3 0,107.7 -87.7,195.3 -195.5,195.3 m 0,-355.2 c -88.2,0 -160,71.7 -160,159.8 0,88.1 71.8,159.8 160,159.8 88.2,0 160,-71.7 160,-159.8 0,-88.1 -71.8,-159.8 -160,-159.8"
   clip-path="url(#SVGID_2_)"
   id="path214" />
</g>
<path
   class="st1"
   d="m 12.926671,7.7003784 c -0.18045,-0.36179 -0.40689,-0.8158 -0.85269,-0.8158 -0.44226,0 -0.6687,0.45046 -0.85268,0.8158 -0.16983,0.33696 -0.26536,0.51431 -0.47765,0.51431 -0.21228,0 -0.30781,-0.17735 -0.47764,-0.51431 -0.18044,-0.36179 -0.4068799,-0.8158 -0.8526799,-0.8158 -0.44581,0 -0.66871,0.45046 -0.85269,0.8158 -0.16983,0.33696 -0.26536,0.51431 -0.47764,0.51431 -0.21229,0 -0.30782,-0.17735 -0.47765,-0.51431 -0.18044,-0.36179 -0.40688,-0.8158 -0.85268,-0.8158 -0.4458,0 -0.6687,0.45046 -0.85268,0.8158 -0.16983,0.33696 -0.26536,0.51431 -0.47765,0.51431 -0.21228,0 -0.30781,-0.17735 -0.47764,-0.51431 -0.18045,-0.36179 -0.40688,-0.8158 -0.85269,-0.8158 -0.44226,0 -0.6687,0.42918 -0.84914,0.79097 0,0 -0.13799,0.30858 -0.19814,0.45401 -0.0601,0.14542 -0.29366,0.69875 -0.0814,0.96477 0.12029,0.14897 0.29366,-0.0639 0.39273,-0.21991 0.0743,-0.1206 0.2512,-0.4682 0.2512,-0.4682 0.18045,-0.32277 0.27598,-0.49657 0.48472,-0.49657 0.21229,0 0.30782,0.17734 0.47765,0.51431 0.18044,0.36178 0.40688,0.81579 0.85268,0.81579 0.44227,0 0.6687,-0.45046 0.85269,-0.81579 0.16982,-0.33697 0.26535,-0.51431 0.47764,-0.51431 0.21229,0 0.30782,0.17734 0.47764,0.51431 0.18045,0.36178 0.40689,0.81579 0.85269,0.81579 0.44226,0 0.6687,-0.45046 0.85268,-0.81579 0.16983,-0.33697 0.26536,-0.51431 0.47765,-0.51431 0.21228,0 0.30781,0.17734 0.47764,0.51431 0.1804399,0.36178 0.4068799,0.81579 0.8526799,0.81579 0.44581,0 0.66871,-0.45046 0.85269,-0.81579 0.16983,-0.33697 0.26536,-0.51431 0.47764,-0.51431 0.21229,0 0.30782,0.17734 0.47765,0.51431 0,0 0.0778,0.15251 0.19105,0.35114 0.0495,0.0816 0.23352,0.39371 0.39627,0.38307 0.14506,-0.0106 0.19814,-0.47174 0.0354,-0.87609 -0.10968,-0.26957 -0.24766,-0.5817 -0.24766,-0.5817 z"
   id="path218"
   style="stroke-width:0.0354252" />
</svg>
