<?xml version="1.0" encoding="UTF-8" standalone="no"?>
<svg width="13" height="13" xmlns:xlink="http://www.w3.org/1999/xlink" xmlns="http://www.w3.org/2000/svg"><g transform="matrix(.03325 0 0 .03328 -2.002 -2)"><defs><path id="a" d="M0 0h512v512H0z"/></defs><clipPath id="b"><use xlink:href="#a" width="100%" height="100%" overflow="visible"/></clipPath><path d="M255.7 450.7c-107.8 0-195.5-87.6-195.5-195.3 0-107.7 87.7-195.3 195.5-195.3s195.5 87.6 195.5 195.3c0 107.7-87.7 195.3-195.5 195.3m0-355.2c-88.2 0-160 71.7-160 159.8 0 88.1 71.8 159.8 160 159.8s160-71.7 160-159.8c0-88.1-71.8-159.8-160-159.8" clip-path="url(#b)" fill="#cb2029"/></g><path d="M11.052 6.15c-.17-.339-.383-.765-.802-.765-.415 0-.628.423-.8.766-.16.316-.25.482-.45.482s-.289-.166-.449-.482c-.17-.34-.382-.766-.8-.766-.42 0-.63.423-.802.766-.16.316-.25.482-.449.482-.2 0-.29-.166-.449-.482-.17-.34-.382-.766-.801-.766-.42 0-.629.423-.801.766-.16.316-.25.482-.45.482-.199 0-.289-.166-.448-.482-.17-.34-.382-.766-.801-.766-.416 0-.629.403-.798.742 0 0-.13.29-.187.426-.056.137-.275.656-.076.906.113.14.276-.06.369-.207.07-.113.236-.44.236-.44.17-.302.26-.465.456-.465.2 0 .289.166.448.482.17.34.383.766.802.766.415 0 .628-.423.801-.766.16-.316.25-.482.449-.482.2 0 .29.166.449.482.17.34.382.766.801.766.416 0 .628-.423.801-.766.16-.316.25-.482.45-.482.199 0 .288.166.448.482.17.34.382.766.801.766.42 0 .629-.423.801-.766.16-.316.25-.482.45-.482.199 0 .289.166.448.482 0 0 .073.144.18.33.046.076.22.37.372.36.136-.01.186-.443.033-.823-.103-.253-.232-.545-.232-.545z" fill="#cb2029"/></svg>
