<?xml version="1.0" encoding="UTF-8" standalone="no"?>
<svg width="32" height="32" xmlns:xlink="http://www.w3.org/1999/xlink" xmlns="http://www.w3.org/2000/svg"><g transform="matrix(.07161 0 0 .07168 -2.311 -2.308)"><defs><path id="a" d="M0 0h512v512H0z"/></defs><clipPath id="b"><use xlink:href="#a" width="100%" height="100%" overflow="visible"/></clipPath><path d="M255.7 450.7c-107.8 0-195.5-87.6-195.5-195.3 0-107.7 87.7-195.3 195.5-195.3s195.5 87.6 195.5 195.3c0 107.7-87.7 195.3-195.5 195.3m0-355.2c-88.2 0-160 71.7-160 159.8 0 88.1 71.8 159.8 160 159.8s160-71.7 160-159.8c0-88.1-71.8-159.8-160-159.8" clip-path="url(#b)" fill="#cb2029"/></g><path d="M25.804 15.247c-.366-.73-.824-1.648-1.726-1.648-.895 0-1.354.91-1.726 1.648-.344.681-.537 1.04-.967 1.04-.43 0-.623-.359-.967-1.04-.365-.73-.823-1.648-1.725-1.648-.903 0-1.354.91-1.726 1.648-.344.681-.537 1.04-.967 1.04-.43 0-.623-.359-.967-1.04-.365-.73-.823-1.648-1.726-1.648-.902 0-1.353.91-1.725 1.648-.344.681-.537 1.04-.967 1.04-.43 0-.623-.359-.967-1.04-.365-.73-.823-1.648-1.726-1.648-.895 0-1.353.867-1.718 1.598 0 0-.28.624-.401.918-.122.294-.595 1.412-.165 1.95.243.3.594-.13.795-.445.15-.244.508-.946.508-.946.365-.652.559-1.004.981-1.004.43 0 .623.359.967 1.04.365.73.824 1.648 1.726 1.648.895 0 1.353-.91 1.726-1.648.343-.681.537-1.04.966-1.04.43 0 .623.359.967 1.04.365.73.824 1.648 1.726 1.648.895 0 1.353-.91 1.726-1.648.344-.681.537-1.04.967-1.04.43 0 .623.359.966 1.04.366.73.824 1.648 1.726 1.648s1.354-.91 1.726-1.648c.344-.681.537-1.04.967-1.04.43 0 .623.359.967 1.04 0 0 .157.308.386.71.1.164.473.795.802.774.294-.022.401-.954.072-1.771a50.626 50.626 0 00-.501-1.176z" fill="#cb2029"/></svg>
