<?xml version="1.0" encoding="UTF-8" standalone="no"?>
<!--

    SonarLint for IntelliJ IDEA
    Copyright (C) 2015-2024 SonarSource
    sonarlint@sonarsource.com

    This program is free software; you can redistribute it and/or
    modify it under the terms of the GNU Lesser General Public
    License as published by the Free Software Foundation; either
    version 3 of the License, or (at your option) any later version.

    This program is distributed in the hope that it will be useful,
    but WITHOUT ANY WARRANTY; without even the implied warranty of
    MERCHANTABILITY or FITNESS FOR A PARTICULAR PURPOSE.  See the GNU
    Lesser General Public License for more details.

    You should have received a copy of the GNU Lesser General Public
    License along with this program; if not, write to the Free Software
    Foundation, Inc., 51 Franklin Street, Fifth Floor, Boston, MA  02

-->

<svg width="12" height="12" xmlns="http://www.w3.org/2000/svg">
  <g transform="matrix(0.03069054,0,0,0.03072197,-1.8393831,-1.8424209)" style="fill:#AE7A29;fill-opacity:1">
    <defs>
      <path d="M 0,0 H 512 V 512 H 0 Z" />
    </defs>
    <path
       d="M 255.7,450.7 C 147.9,450.7 60.2,363.1 60.2,255.4 60.2,147.7 147.9,60.1 255.7,60.1 c 107.8,0 195.5,87.6 195.5,195.3 0,107.7 -87.7,195.3 -195.5,195.3 m 0,-355.2 c -88.2,0 -160,71.7 -160,159.8 0,88.1 71.8,159.8 160,159.8 88.2,0 160,-71.7 160,-159.8 0,-88.1 -71.8,-159.8 -160,-159.8"
       fill="#AE7A29"
       style="fill:#AE7A29;fill-opacity:1" />
  </g>
  <path
     d="M 10.232799,5.7472076 C 10.078489,5.4377592 9.8838873,5.0485915 9.5015423,5.0485915 c -0.378917,0 -0.573519,0.385739 -0.731258,0.6986161 -0.145737,0.2888757 -0.227179,0.4414568 -0.408922,0.4414568 -0.1826,0 -0.264041,-0.1525811 -0.4097782,-0.4414568 C 7.7972742,5.4377592 7.6026721,5.0485915 7.2203264,5.0485915 c -0.3814886,0 -0.5726615,0.385739 -0.7304005,0.6986161 C 6.3441887,6.0360833 6.26189,6.1886644 6.0801472,6.1886644 5.8984043,6.1886644 5.8161057,6.0360833 5.6703685,5.7472076 5.5160585,5.4377592 5.3214565,5.0485915 4.939968,5.0485915 c -0.3823458,0 -0.5735187,0.385739 -0.7312578,0.6986161 -0.1457371,0.2888757 -0.2271785,0.4414568 -0.4097786,0.4414568 -0.1817429,0 -0.2631843,-0.1525811 -0.4089214,-0.4414568 -0.15431,-0.3094484 -0.348912,-0.6986161 -0.7312578,-0.6986161 -0.3789167,0 -0.5735187,0.3677378 -0.7286859,0.6771862 0,0 -0.1174471,0.2657313 -0.1688837,0.3900249 C 1.7097461,6.2400963 1.5091432,6.7141267 1.690886,6.9421412 1.7937593,7.0707209 1.9429256,6.8872806 2.0277961,6.7535577 2.0912346,6.650694 2.2429728,6.3523892 2.2429728,6.3523892 2.3972827,6.0755144 2.4795814,5.9272191 2.6587524,5.9272191 c 0.1817428,0 0.2640415,0.151724 0.4097787,0.4405997 0.1543099,0.3103055 0.3489119,0.6994733 0.7304005,0.6994733 0.3797739,0 0.5735187,-0.385739 0.7312577,-0.6994733 0.1457372,-0.2888757 0.2271786,-0.4405997 0.4097787,-0.4405997 0.1817429,0 0.2631842,0.151724 0.4089214,0.4405997 0.15431,0.3103055 0.348912,0.6994733 0.7312578,0.6994733 0.3789167,0 0.5735187,-0.385739 0.7312577,-0.6994733 0.1457372,-0.2888757 0.2271786,-0.4405997 0.4089215,-0.4405997 0.1826001,0 0.2640414,0.151724 0.4097786,0.4405997 0.15431,0.3103055 0.348912,0.6994733 0.7312573,0.6994733 0.381489,0 0.572662,-0.385739 0.730401,-0.6994733 0.145737,-0.2888757 0.228036,-0.4405997 0.409779,-0.4405997 0.181743,0 0.264041,0.151724 0.409778,0.4405997 0,0 0.06601,0.130294 0.1628827,0.3008764 0.04286,0.07029 0.200603,0.3377359 0.340339,0.3283067 0.124306,-0.00857 0.169741,-0.4045973 0.03001,-0.7509052 -0.0943,-0.2314434 -0.211748,-0.4988891 -0.211748,-0.4988891 z"
     fill="#AE7A29"
     style="stroke-width:0.857238;fill:#AE7A29;fill-opacity:1" />
</svg>
