<?xml version="1.0" encoding="UTF-8" standalone="no"?>
<!-- Generator: Adobe Illustrator 23.0.3, SVG Export Plug-In . SVG Version: 6.00 Build 0)  -->

<svg
   version="1.1"
   id="Calque_1"
   x="0px"
   y="0px"
   viewBox="0 0 25.999998 26"
   xml:space="preserve"
   sodipodi:docname="sonarlintToolWindow@2x.svg"
   width="26"
   height="26"
   inkscape:version="1.1 (c68e22c387, 2021-05-23)"
   xmlns:inkscape="http://www.inkscape.org/namespaces/inkscape"
   xmlns:sodipodi="http://sodipodi.sourceforge.net/DTD/sodipodi-0.dtd"
   xmlns:xlink="http://www.w3.org/1999/xlink"
   xmlns="http://www.w3.org/2000/svg"
   xmlns:svg="http://www.w3.org/2000/svg"><defs
   id="defs372" /><sodipodi:namedview
   id="namedview370"
   pagecolor="#ffffff"
   bordercolor="#666666"
   borderopacity="1.0"
   inkscape:pageshadow="2"
   inkscape:pageopacity="0.0"
   inkscape:pagecheckerboard="0"
   showgrid="false"
   fit-margin-top="0"
   fit-margin-left="0"
   fit-margin-right="0"
   fit-margin-bottom="0"
   inkscape:zoom="13.640625"
   inkscape:cx="-8.0641466"
   inkscape:cy="19.06071"
   inkscape:window-width="2560"
   inkscape:window-height="1357"
   inkscape:window-x="0"
   inkscape:window-y="0"
   inkscape:window-maximized="1"
   inkscape:current-layer="Calque_1" />
<style
   type="text/css"
   id="style355">
	.st0{clip-path:url(#SVGID_2_);fill:#CB2029;}
	.st1{fill:#CB2029;}
</style>
<g
   id="g365"
   transform="matrix(0.06649616,0,0,0.06656426,-4.0030688,-4.000512)">
	<defs
   id="defs358">
		<rect
   id="SVGID_1_"
   width="512"
   height="512"
   x="0"
   y="0" />
	</defs>
	<clipPath
   id="SVGID_2_">
		<use
   xlink:href="#SVGID_1_"
   style="overflow:visible"
   id="use360"
   x="0"
   y="0"
   width="100%"
   height="100%" />
	</clipPath>
	<path
   class="st0"
   d="M 255.7,450.7 C 147.9,450.7 60.2,363.1 60.2,255.4 60.2,147.7 147.9,60.1 255.7,60.1 c 107.8,0 195.5,87.6 195.5,195.3 0,107.7 -87.7,195.3 -195.5,195.3 m 0,-355.2 c -88.2,0 -160,71.7 -160,159.8 0,88.1 71.8,159.8 160,159.8 88.2,0 160,-71.7 160,-159.8 0,-88.1 -71.8,-159.8 -160,-159.8"
   clip-path="url(#SVGID_2_)"
   id="path363" />
</g>
<path
   class="st1"
   d="m 22.103321,12.301078 c -0.33913,-0.67896 -0.7647,-1.53098 -1.60255,-1.53098 -0.8312,0 -1.25678,0.84536 -1.60256,1.53098 -0.31918,0.63236 -0.49872,0.96518 -0.8977,0.96518 -0.39898,0 -0.57852,-0.33282 -0.8977,-0.96518 -0.33913,-0.67896 -0.7647,-1.53098 -1.60255,-1.53098 -0.83786,0 -1.25678,0.84536 -1.60256,1.53098 -0.31918,0.63236 -0.49872,0.96518 -0.8977,0.96518 -0.39898,0 -0.57852,-0.33282 -0.8977,-0.96518 -0.33913,-0.67896 -0.7647,-1.53098 -1.60256,-1.53098 -0.8378498,0 -1.2567698,0.84536 -1.6025498,1.53098 -0.31918,0.63236 -0.49872,0.96518 -0.8977,0.96518 -0.39898,0 -0.57852,-0.33282 -0.8977,-0.96518 -0.33913,-0.67896 -0.76471,-1.53098 -1.60256,-1.53098 -0.8312,0 -1.25677,0.80542 -1.59591,1.48438 0,0 -0.25933,0.57911 -0.37237,0.85202 -0.11305,0.27292 -0.55192,1.31132 -0.15294,1.81055 0.22608,0.27957 0.55191,-0.11981 0.7381,-0.4127 0.13964,-0.22632 0.47213,-0.87865 0.47213,-0.87865 0.33913,-0.60573 0.51867,-0.9319 0.91099,-0.9319 0.39898,0 0.57852,0.33283 0.8977,0.96519 0.33913,0.67895 0.76471,1.53097 1.60256,1.53097 0.8312,0 1.25678,-0.84536 1.60256,-1.53097 0.31918,-0.63236 0.4987198,-0.96519 0.8976898,-0.96519 0.39898,0 0.57852,0.33283 0.8977,0.96519 0.33913,0.67895 0.76471,1.53097 1.60256,1.53097 0.8312,0 1.25678,-0.84536 1.60256,-1.53097 0.31918,-0.63236 0.49872,-0.96519 0.8977,-0.96519 0.39897,0 0.57851,0.33283 0.89769,0.96519 0.33913,0.67895 0.76471,1.53097 1.60256,1.53097 0.83785,0 1.25678,-0.84536 1.60256,-1.53097 0.31918,-0.63236 0.49872,-0.96519 0.8977,-0.96519 0.39897,0 0.57851,0.33283 0.8977,0.96519 0,0 0.14629,0.28622 0.35907,0.65898 0.0931,0.1531 0.43888,0.73887 0.74476,0.7189 0.27264,-0.02 0.37238,-0.88531 0.0665,-1.64414 -0.20614,-0.50589 -0.46548,-1.09165 -0.46548,-1.09165 z"
   id="path367"
   style="stroke-width:0.0665302" />
</svg>
