<!--

    SonarLint for IntelliJ IDEA
    Copyright (C) 2015-2025 SonarSource Sàrl
    sonarlint@sonarsource.com

    This program is free software; you can redistribute it and/or
    modify it under the terms of the GNU Lesser General Public
    License as published by the Free Software Foundation; either
    version 3 of the License, or (at your option) any later version.

    This program is distributed in the hope that it will be useful,
    but WITHOUT ANY WARRANTY; without even the implied warranty of
    MERCHANTABILITY or FITNESS FOR A PARTICULAR PURPOSE.  See the GNU
    Lesser General Public License for more details.

    You should have received a copy of the GNU Lesser General Public
    License along with this program; if not, write to the Free Software
    Foundation, Inc., 51 Franklin Street, Fifth Floor, Boston, MA  02

-->
<svg width="17" height="17" viewBox="0 0 17 17" fill="none" xmlns="http://www.w3.org/2000/svg">
<path d="M14.7966 8.87854C14.5466 8.87854 14.3466 8.67854 14.3466 8.42854C14.3466 5.06854 11.6166 2.33854 8.25664 2.33854C8.00664 2.33854 7.80664 2.13854 7.80664 1.88854C7.80664 1.63854 8.00664 1.43854 8.25664 1.43854C12.1166 1.43854 15.2566 4.57854 15.2566 8.43854C15.2566 8.68854 15.0566 8.88854 14.8066 8.88854L14.7966 8.87854Z" fill="white"/>
<path d="M8.24658 15.4285C4.38658 15.4285 1.24658 12.2885 1.24658 8.42852C1.24658 8.17852 1.44658 7.97852 1.69658 7.97852C1.94658 7.97852 2.14658 8.17852 2.14658 8.42852C2.14658 11.7885 4.87658 14.5185 8.23658 14.5185C8.48658 14.5185 8.68658 14.7185 8.68658 14.9685C8.68658 15.2185 8.48658 15.4185 8.23658 15.4185L8.24658 15.4285Z" fill="white"/>
<path d="M10.2066 8.87855C9.95663 8.87855 9.75663 8.67855 9.75663 8.42855C9.75663 7.59855 9.07663 6.91855 8.24663 6.91855C7.99663 6.91855 7.79663 6.71855 7.79663 6.46855C7.79663 6.21855 7.99663 6.01855 8.24663 6.01855C9.57663 6.01855 10.6666 7.09855 10.6666 8.43855C10.6666 8.68855 10.4666 8.88855 10.2166 8.88855L10.2066 8.87855Z" fill="white"/>
<path d="M8.24666 10.8485C6.91666 10.8485 5.82666 9.76852 5.82666 8.42852C5.82666 8.17852 6.02666 7.97852 6.27666 7.97852C6.52666 7.97852 6.72666 8.17852 6.72666 8.42852C6.72666 9.25852 7.40666 9.93852 8.23666 9.93852C8.48666 9.93852 8.68666 10.1385 8.68666 10.3885C8.68666 10.6385 8.48666 10.8385 8.23666 10.8385L8.24666 10.8485Z" fill="white"/>
<path d="M12.5066 8.87852C12.2566 8.87852 12.0566 8.67852 12.0566 8.42852C12.0566 6.32852 10.3466 4.62852 8.25664 4.62852C8.00664 4.62852 7.80664 4.42852 7.80664 4.17852C7.80664 3.92852 8.00664 3.72852 8.25664 3.72852C10.8566 3.72852 12.9666 5.83852 12.9666 8.43852C12.9666 8.68852 12.7666 8.88852 12.5166 8.88852L12.5066 8.87852Z" fill="white"/>
<path d="M8.24662 13.1385C5.64662 13.1385 3.53662 11.0285 3.53662 8.42852C3.53662 8.17852 3.73662 7.97852 3.98662 7.97852C4.23662 7.97852 4.43662 8.17852 4.43662 8.42852C4.43662 10.5285 6.14662 12.2285 8.23662 12.2285C8.48662 12.2285 8.68662 12.4285 8.68662 12.6785C8.68662 12.9285 8.48662 13.1285 8.23662 13.1285L8.24662 13.1385Z" fill="white"/>
</svg>
