<!--

    SonarLint for IntelliJ IDEA
    Copyright (C) 2015-2025 SonarSource
    sonarlint@sonarsource.com

    This program is free software; you can redistribute it and/or
    modify it under the terms of the GNU Lesser General Public
    License as published by the Free Software Foundation; either
    version 3 of the License, or (at your option) any later version.

    This program is distributed in the hope that it will be useful,
    but WITHOUT ANY WARRANTY; without even the implied warranty of
    MERCHANTABILITY or FITNESS FOR A PARTICULAR PURPOSE.  See the GNU
    Lesser General Public License for more details.

    You should have received a copy of the GNU Lesser General Public
    License along with this program; if not, write to the Free Software
    Foundation, Inc., 51 Franklin Street, Fifth Floor, Boston, MA  02

-->
<svg width="17" height="17" viewBox="0 0 17 17" fill="none" xmlns="http://www.w3.org/2000/svg">
<path d="M15.3813 9.06288C15.3813 9.42009 14.9715 9.63216 14.6865 9.41708C14.3729 9.18019 14.1728 8.80644 14.0104 8.50262C13.7878 8.08675 13.6381 7.83482 13.4389 7.83482C13.2396 7.83482 13.0899 8.0875 12.8673 8.50262C12.6079 8.98692 12.2529 9.64946 11.4956 9.64946C10.7383 9.64946 10.3834 8.98617 10.1247 8.50187C9.90283 8.08675 9.75318 7.83407 9.55389 7.83407C9.3546 7.83407 9.20645 8.08675 8.98385 8.50187C8.72516 8.98617 8.37095 9.64946 7.61366 9.64946C6.85638 9.64946 6.50142 8.98617 6.24272 8.50187C6.02088 8.08675 5.87122 7.83407 5.67269 7.83407C5.47415 7.83407 5.3245 8.08675 5.10265 8.50187C4.84396 8.98617 4.489 9.64946 3.73246 9.64946C2.97592 9.64946 2.62097 8.98617 2.36227 8.50187C2.2066 8.21083 2.08703 8.00026 1.96069 7.90024C1.86142 7.82128 1.79224 7.71224 1.79224 7.5859V7.51446C1.79224 7.15724 2.20209 6.94442 2.48786 7.16025C2.8007 7.39714 3.00074 7.7709 3.16318 8.07471C3.38503 8.48983 3.53468 8.74251 3.73321 8.74251C3.93175 8.74251 4.0814 8.48983 4.30325 8.07471C4.56195 7.59041 4.9169 6.92712 5.67344 6.92712C6.42998 6.92712 6.78493 7.59041 7.04363 8.07471C7.26548 8.48983 7.41513 8.74251 7.61366 8.74251C7.8122 8.74251 7.96185 8.48983 8.1837 8.07471C8.4424 7.59041 8.7966 6.92712 9.55389 6.92712C10.3112 6.92712 10.6661 7.59041 10.9248 8.07471C11.1467 8.48983 11.2963 8.74251 11.4956 8.74251C11.6949 8.74251 11.8446 8.48983 12.0672 8.07471C12.3266 7.59041 12.6808 6.92788 13.4389 6.92788C14.1969 6.92788 14.5511 7.59116 14.8105 8.07471C14.9662 8.36575 15.0858 8.57632 15.2121 8.67709C15.3114 8.75605 15.3813 8.86509 15.3813 8.99219V9.06363V9.06288Z" fill="#126ED3"/>
<path d="M8.70482 15.2874C7.06691 15.2874 5.50946 14.7257 4.25433 13.6871C4.05279 13.5202 4.03625 13.2156 4.21673 13.0253C4.38143 12.8516 4.6514 12.8373 4.83565 12.99C5.9697 13.927 7.38577 14.4181 8.87252 14.3775C10.357 14.3376 11.7468 13.7728 12.8297 12.7764C13.0057 12.6147 13.2756 12.614 13.4493 12.7787C13.6396 12.9592 13.6389 13.2645 13.4463 13.442C12.2017 14.5888 10.6037 15.2385 8.89659 15.2844C8.83266 15.2859 8.76874 15.2874 8.70482 15.2874Z" fill="#126ED3"/>
<path d="M3.97081 3.79265C3.78054 3.61217 3.7813 3.30609 3.97457 3.12786C5.25677 1.94944 6.88265 1.33353 8.52357 1.28991C10.1645 1.24629 11.8212 1.77421 13.1636 2.8827C13.3659 3.04965 13.3832 3.35497 13.2027 3.54599C13.0387 3.71971 12.7688 3.73399 12.5845 3.58208C11.4264 2.62626 10.0005 2.16677 8.58599 2.19535C7.14511 2.22468 5.71475 2.76087 4.58897 3.79566C4.413 3.95735 4.14377 3.95659 3.97081 3.79265Z" fill="#126ED3"/>
</svg>
