<!--

    SonarLint for IntelliJ IDEA
    Copyright (C) 2015-2025 SonarSource
    sonarlint@sonarsource.com

    This program is free software; you can redistribute it and/or
    modify it under the terms of the GNU Lesser General Public
    License as published by the Free Software Foundation; either
    version 3 of the License, or (at your option) any later version.

    This program is distributed in the hope that it will be useful,
    but WITHOUT ANY WARRANTY; without even the implied warranty of
    MERCHANTABILITY or FITNESS FOR A PARTICULAR PURPOSE.  See the GNU
    Lesser General Public License for more details.

    You should have received a copy of the GNU Lesser General Public
    License along with this program; if not, write to the Free Software
    Foundation, Inc., 51 Franklin Street, Fifth Floor, Boston, MA  02

-->
<svg width="16" height="16" viewBox="0 0 16 16" fill="none" xmlns="http://www.w3.org/2000/svg">
<g clip-path="url(#clip0_66_143)">
<path d="M1.35254 7.21403C2.07773 7.74165 1.99388 8.95884 2.87565 8.95884C3.88349 8.95884 4.00017 6.99878 4.93371 6.99878C5.96575 6.99878 5.86573 8.98572 6.9829 8.95884C7.9495 8.93558 7.97168 6.99878 9.00978 6.99878C10.0479 6.99878 9.97292 8.98321 11.0901 8.95884C12.1823 8.935 12.042 6.99878 13.0858 6.99878C14.0793 6.99878 13.9896 8.27309 14.6269 8.75776" stroke="#6C707E" stroke-width="1.23077" stroke-linecap="round" stroke-linejoin="round"/>
<path fill-rule="evenodd" clip-rule="evenodd" d="M3.26761 3.26701C3.48946 3.52449 3.87802 3.55336 4.1355 3.33151C6.20656 1.547 9.57539 1.42701 11.889 3.33951C12.151 3.55605 12.5389 3.51923 12.7554 3.25727C12.9719 2.99532 12.9351 2.60742 12.6732 2.39088C9.8974 0.0963618 5.85792 0.222772 3.33211 2.39912C3.07463 2.62097 3.04576 3.00954 3.26761 3.26701Z" fill="#6C707E"/>
<path d="M9.60036 15.1087C9.38077 14.7555 9.21472 14.3655 9.11352 13.9501C7.42097 14.2486 5.56834 13.8463 4.12588 12.6539C3.86393 12.4374 3.47603 12.4742 3.25949 12.7361C3.04296 12.9981 3.07978 13.386 3.34173 13.6025C5.14793 15.0956 7.48922 15.5636 9.60036 15.1087Z" fill="#6C707E"/>
<circle cx="13" cy="13" r="3" fill="#DB5860"/>
</g>
<defs>
<clipPath id="clip0_66_143">
<rect width="16" height="16" fill="white"/>
</clipPath>
</defs>
</svg>
