<!--

    SonarLint for IntelliJ IDEA
    Copyright (C) 2015-2025 SonarSource Sàrl
    sonarlint@sonarsource.com

    This program is free software; you can redistribute it and/or
    modify it under the terms of the GNU Lesser General Public
    License as published by the Free Software Foundation; either
    version 3 of the License, or (at your option) any later version.

    This program is distributed in the hope that it will be useful,
    but WITHOUT ANY WARRANTY; without even the implied warranty of
    MERCHANTABILITY or FITNESS FOR A PARTICULAR PURPOSE.  See the GNU
    Lesser General Public License for more details.

    You should have received a copy of the GNU Lesser General Public
    License along with this program; if not, write to the Free Software
    Foundation, Inc., 51 Franklin Street, Fifth Floor, Boston, MA  02

-->
<svg width="17" height="17" viewBox="0 0 17 17" fill="none" xmlns="http://www.w3.org/2000/svg">
<path d="M10.2847 5.36952C9.90028 4.99108 9.39569 4.78685 8.85206 4.79285C8.60277 4.79285 8.40454 5.00009 8.40454 5.24638C8.40454 5.49267 8.60878 5.6939 8.85506 5.6939C8.85807 5.6939 8.86407 5.6939 8.87008 5.6939C9.47979 5.6939 9.98137 6.18947 9.98738 6.79918C9.98738 7.04547 10.1916 7.2467 10.4379 7.2467H10.4409C10.6902 7.2467 10.8884 7.03946 10.8884 6.79318C10.8824 6.25555 10.6692 5.74796 10.2847 5.37253V5.36952Z" fill="#126ED3"/>
<path d="M8.9243 2.06564C8.94232 2.06564 8.95734 2.06564 8.97236 2.06564C11.2911 2.06564 13.2764 3.78364 13.6037 6.0783C13.6368 6.30356 13.829 6.46575 14.0483 6.46575C14.0693 6.46575 14.0903 6.46575 14.1113 6.46275C14.3576 6.42671 14.5288 6.19844 14.4928 5.95216C14.1023 3.21598 11.7326 1.1676 8.96936 1.1676C8.95133 1.1676 8.93331 1.1676 8.91529 1.1676C8.666 1.1676 8.46777 1.37484 8.46777 1.62113C8.46777 1.86741 8.67201 2.06865 8.9183 2.06865L8.9243 2.06564Z" fill="#126ED3"/>
<path d="M12.7267 7.09949C12.7688 6.02424 12.3843 4.93698 11.5644 4.12003C10.0056 2.56123 7.47063 2.56123 5.91483 4.12003C5.1129 4.92197 4.70442 5.99721 4.75248 7.11451C4.0857 7.28571 3.45197 7.62811 2.92936 8.15071C1.37055 9.70952 1.37055 12.2445 2.92936 13.8003C3.70726 14.5782 4.73145 14.9686 5.75564 14.9686C6.77983 14.9686 7.80102 14.5782 8.58192 13.8003C8.645 13.7372 8.70206 13.6681 8.76213 13.602C9.49498 14.44 10.5672 14.9716 11.7656 14.9716C13.9702 14.9716 15.7603 13.1785 15.7603 10.977C15.7603 9.13886 14.4808 7.535 12.7267 7.09949ZM11.7656 14.0736C10.0596 14.0736 8.67203 12.686 8.67203 10.98C8.67203 10.7307 8.47079 10.5295 8.2215 10.5295C7.97221 10.5295 7.77098 10.7307 7.77098 10.98C7.77098 11.6498 7.93918 12.2805 8.23051 12.8362C8.14341 12.9533 8.0503 13.0644 7.94518 13.1695C6.73778 14.3769 4.7735 14.3769 3.5691 13.1695C2.3617 11.9621 2.3617 10.0009 3.5691 8.79346C4.77651 7.58606 6.73778 7.58606 7.94518 8.79346C8.12239 8.97066 8.40772 8.97066 8.58192 8.79346C8.75612 8.61625 8.75913 8.33092 8.58192 8.15672C7.77398 7.34878 6.70474 6.96434 5.64451 6.99437C5.6325 6.1594 5.95087 5.36047 6.55156 4.76278C7.75897 3.55538 9.72024 3.55538 10.9276 4.76278C12.135 5.97018 12.135 7.93446 10.9276 9.13886C10.7504 9.31607 10.7504 9.6014 10.9276 9.7756C11.0147 9.8627 11.1319 9.90775 11.246 9.90775C11.3601 9.90775 11.4773 9.8627 11.5644 9.7756C12.075 9.26501 12.4144 8.65229 12.5886 8.00354C13.9041 8.36997 14.8592 9.58938 14.8592 10.983C14.8592 12.689 13.4716 14.0766 11.7656 14.0766V14.0736Z" fill="#126ED3"/>
</svg>
