<?xml version="1.0" encoding="UTF-8" standalone="no"?>
<!--

    SonarLint for IntelliJ IDEA
    Copyright (C) 2015-2022 SonarSource
    sonarlint@sonarsource.com

    This program is free software; you can redistribute it and/or
    modify it under the terms of the GNU Lesser General Public
    License as published by the Free Software Foundation; either
    version 3 of the License, or (at your option) any later version.

    This program is distributed in the hope that it will be useful,
    but WITHOUT ANY WARRANTY; without even the implied warranty of
    MERCHANTABILITY or FITNESS FOR A PARTICULAR PURPOSE.  See the GNU
    Lesser General Public License for more details.

    You should have received a copy of the GNU Lesser General Public
    License along with this program; if not, write to the Free Software
    Foundation, Inc., 51 Franklin Street, Fifth Floor, Boston, MA  02

-->
<svg width="16" height="16" xmlns:xlink="http://www.w3.org/1999/xlink" xmlns="http://www.w3.org/2000/svg"><g transform="matrix(.0358 0 0 .03584 -1.155 -1.154)"><defs><path id="a" d="M0 0h512v512H0z"/></defs><clipPath id="b"><use xlink:href="#a" width="100%" height="100%" overflow="visible"/></clipPath><path d="M255.7 450.7c-107.8 0-195.5-87.6-195.5-195.3 0-107.7 87.7-195.3 195.5-195.3s195.5 87.6 195.5 195.3c0 107.7-87.7 195.3-195.5 195.3m0-355.2c-88.2 0-160 71.7-160 159.8 0 88.1 71.8 159.8 160 159.8s160-71.7 160-159.8c0-88.1-71.8-159.8-160-159.8" clip-path="url(#b)" fill="#cb2029"/></g><path d="M12.927 7.7c-.18-.361-.407-.815-.853-.815-.442 0-.669.45-.853.815-.17.337-.265.515-.477.515-.213 0-.308-.178-.478-.515-.18-.361-.407-.815-.853-.815-.445 0-.668.45-.852.815-.17.337-.266.515-.478.515-.212 0-.308-.178-.478-.515-.18-.361-.407-.815-.852-.815-.446 0-.669.45-.853.815-.17.337-.265.515-.478.515-.212 0-.307-.178-.477-.515-.18-.361-.407-.815-.853-.815-.442 0-.669.429-.85.79 0 0-.137.31-.197.455-.06.145-.294.698-.082.964.12.15.294-.064.393-.22.074-.12.251-.468.251-.468.18-.323.276-.496.485-.496.212 0 .308.177.478.514.18.362.407.816.852.816.443 0 .669-.45.853-.816.17-.337.265-.514.478-.514.212 0 .307.177.477.514.18.362.407.816.853.816.442 0 .669-.45.853-.816.17-.337.265-.514.477-.514.213 0 .308.177.478.514.18.362.407.816.853.816.445 0 .668-.45.852-.816.17-.337.266-.514.478-.514.212 0 .308.177.478.514 0 0 .077.152.19.351.05.082.234.394.397.383.145-.01.198-.472.035-.876-.11-.27-.247-.582-.247-.582z" fill="#cb2029"/></svg>
