<svg width="16" height="16" viewBox="0 0 16 16" fill="none" xmlns="http://www.w3.org/2000/svg">
<g clip-path="url(#clip0_86_13230)">
<mask id="mask0_86_13230" style="mask-type:luminance" maskUnits="userSpaceOnUse" x="0" y="0" width="16" height="16">
<path d="M16 0H0V16H16V0Z" fill="white"/>
</mask>
<g mask="url(#mask0_86_13230)">
<mask id="mask1_86_13230" style="mask-type:luminance" maskUnits="userSpaceOnUse" x="0" y="0" width="16" height="16">
<path d="M16 0H0V16H16V0Z" fill="white"/>
</mask>
<g mask="url(#mask1_86_13230)">
<path d="M15.4 8.06621C15.4 8.45621 14.955 8.68621 14.645 8.45121C14.305 8.19121 14.085 7.78621 13.91 7.45621C13.67 7.00121 13.505 6.73121 13.29 6.73121C13.075 6.73121 12.91 7.00621 12.67 7.45621C12.39 7.98121 12 8.70621 11.175 8.70621C10.35 8.70621 9.965 7.98621 9.68 7.45621C9.44 7.00621 9.275 6.73121 9.06 6.73121C8.845 6.73121 8.68 7.00621 8.44 7.45621C8.16 7.98121 7.77 8.70621 6.95 8.70621C6.13 8.70621 5.74 7.98621 5.455 7.45621C5.215 7.00621 5.05 6.73121 4.83499 6.73121C4.61999 6.73121 4.45499 7.00621 4.21499 7.45621C3.93499 7.98121 3.54499 8.70621 2.72499 8.70621C1.90499 8.70621 1.51499 7.98621 1.23499 7.45621C1.06499 7.14121 0.93499 6.91121 0.79999 6.80121C0.68999 6.71621 0.61499 6.59621 0.61499 6.46121V6.38121C0.61499 5.99121 1.05999 5.76121 1.36999 5.99621C1.70999 6.25621 1.92999 6.66121 2.10499 6.99121C2.34499 7.44121 2.50999 7.71621 2.72499 7.71621C2.93999 7.71621 3.10499 7.44121 3.34499 6.99121C3.62499 6.46621 4.01499 5.74121 4.83999 5.74121C5.665 5.74121 6.05 6.46121 6.335 6.99121C6.575 7.44121 6.74 7.71621 6.955 7.71621C7.17 7.71621 7.335 7.44121 7.575 6.99121C7.855 6.46621 8.245 5.74121 9.065 5.74121C9.885 5.74121 10.275 6.46121 10.56 6.99121C10.8 7.44121 10.965 7.71621 11.18 7.71621C11.395 7.71621 11.56 7.44121 11.8 6.99121C12.08 6.46621 12.47 5.74121 13.295 5.74121C14.12 5.74121 14.505 6.46121 14.79 6.99121C14.96 7.30621 15.09 7.53621 15.23 7.64621C15.34 7.73121 15.415 7.85121 15.415 7.99121V8.07121L15.4 8.06621Z" fill="#6C707E"/>
<path d="M8.12995 14.0773C6.34495 14.0773 4.64995 13.4673 3.28495 12.3323C3.06495 12.1523 3.04995 11.8173 3.24495 11.6123C3.42495 11.4223 3.71995 11.4073 3.91995 11.5723C5.15495 12.5923 6.69495 13.1273 8.31495 13.0823C9.92995 13.0373 11.445 12.4223 12.625 11.3373C12.815 11.1623 13.11 11.1623 13.3 11.3373C13.505 11.5323 13.505 11.8673 13.3 12.0623C11.945 13.3123 10.205 14.0173 8.34495 14.0673C8.27495 14.0673 8.20495 14.0673 8.13495 14.0673L8.12995 14.0773Z" fill="#6C707E"/>
<path d="M2.97497 3.10495C2.76497 2.90995 2.76997 2.57496 2.97497 2.37996C4.37497 1.09996 6.14495 0.424952 7.92995 0.379952C9.71495 0.329952 11.52 0.90495 12.985 2.11495C13.205 2.29495 13.225 2.62995 13.03 2.83495C12.85 3.02495 12.56 3.03995 12.355 2.87495C11.095 1.83495 9.53995 1.33495 7.99995 1.36495C6.45995 1.39495 4.87497 1.97995 3.64497 3.10995C3.45497 3.28495 3.15997 3.28495 2.96997 3.10995L2.97497 3.10495Z" fill="#6C707E"/>
<path d="M12.7991 14.7C12.9109 14.7 13.0056 14.6615 13.0834 14.5843C13.1612 14.5071 13.2001 14.4127 13.2001 14.301C13.2001 14.1892 13.1615 14.0945 13.0844 14.0167C13.0072 13.9389 12.9128 13.9 12.801 13.9C12.6893 13.9 12.5945 13.9386 12.5167 14.0157C12.439 14.0929 12.4001 14.1873 12.4001 14.2991C12.4001 14.4108 12.4386 14.5056 12.5158 14.5834C12.593 14.6611 12.6874 14.7 12.7991 14.7ZM12.8024 15.9C12.362 15.9 11.9473 15.8166 11.5584 15.65C11.1695 15.4833 10.8292 15.2541 10.5376 14.9625C10.2459 14.6708 10.0167 14.3307 9.8501 13.942C9.68345 13.5534 9.6001 13.1381 9.6001 12.6962C9.6001 12.2543 9.68345 11.8403 9.8501 11.4542C10.0167 11.0681 10.2459 10.7291 10.5376 10.4375C10.8292 10.1459 11.1694 9.91665 11.5581 9.75C11.9467 9.58335 12.362 9.5 12.8039 9.5C13.2458 9.5 13.6598 9.58335 14.0459 9.75C14.432 9.91665 14.7709 10.1459 15.0626 10.4375C15.3542 10.7291 15.5834 11.0687 15.7501 11.456C15.9167 11.8434 16.0001 12.2573 16.0001 12.6977C16.0001 13.1381 15.9167 13.5528 15.7501 13.9417C15.5834 14.3306 15.3542 14.6708 15.0626 14.9625C14.7709 15.2541 14.4314 15.4833 14.044 15.65C13.6567 15.8166 13.2428 15.9 12.8024 15.9ZM12.8268 11.2833C12.962 11.2833 13.0829 11.3255 13.1898 11.4099C13.2966 11.4942 13.3501 11.5996 13.3501 11.7261C13.3501 11.842 13.3148 11.9472 13.2443 12.0416C13.1738 12.1361 13.0924 12.2222 13.0001 12.3C12.8723 12.4111 12.7556 12.5333 12.6501 12.6666C12.5445 12.8 12.4917 12.95 12.4917 13.1166C12.4917 13.2 12.5214 13.2694 12.5807 13.325C12.6401 13.3805 12.7093 13.4083 12.7884 13.4083C12.8777 13.4083 12.9533 13.3792 13.0154 13.3209C13.0774 13.2625 13.1167 13.1889 13.1334 13.1C13.1556 12.9834 13.2056 12.8802 13.2834 12.7906C13.3612 12.7009 13.4445 12.6153 13.5334 12.5338C13.6612 12.4169 13.7695 12.2842 13.8584 12.1359C13.9473 11.9876 13.9917 11.8284 13.9917 11.6583C13.9917 11.375 13.8765 11.143 13.6459 10.9625C13.4154 10.7819 13.1471 10.6917 12.841 10.6917C12.6296 10.6917 12.4296 10.7389 12.2411 10.8334C12.0526 10.9278 11.8969 11.0647 11.7737 11.2439C11.7302 11.304 11.7181 11.37 11.7376 11.442C11.757 11.514 11.7973 11.575 11.8584 11.625C11.9362 11.6861 12.0195 11.7041 12.1084 11.6791C12.1973 11.6541 12.2723 11.6028 12.3334 11.525C12.3945 11.4472 12.4677 11.3875 12.553 11.3458C12.6383 11.3041 12.7295 11.2833 12.8268 11.2833Z" fill="#6C707E"/>
</g>
</g>
</g>
<defs>
<clipPath id="clip0_86_13230">
<rect width="16" height="16" fill="white"/>
</clipPath>
</defs>
</svg>
