<svg width="20" height="20" viewBox="0 0 20 20" fill="none" xmlns="http://www.w3.org/2000/svg">
<g clip-path="url(#clip0_86_13244)">
<mask id="mask0_86_13244" style="mask-type:luminance" maskUnits="userSpaceOnUse" x="0" y="0" width="20" height="20">
<path d="M20 0H0V20H20V0Z" fill="white"/>
</mask>
<g mask="url(#mask0_86_13244)">
<mask id="mask1_86_13244" style="mask-type:luminance" maskUnits="userSpaceOnUse" x="0" y="0" width="20" height="20">
<path d="M20 0H0V20H20V0Z" fill="white"/>
</mask>
<g mask="url(#mask1_86_13244)">
<path d="M19.2501 10.0825C19.2501 10.57 18.6938 10.8575 18.3063 10.5638C17.8813 10.2388 17.6063 9.73252 17.3876 9.32002C17.0876 8.75127 16.8813 8.41377 16.6126 8.41377C16.3438 8.41377 16.1376 8.75752 15.8376 9.32002C15.4876 9.97627 15.0001 10.8825 13.9688 10.8825C12.9376 10.8825 12.4563 9.98252 12.1001 9.32002C11.8001 8.75752 11.5938 8.41377 11.3251 8.41377C11.0563 8.41377 10.8501 8.75752 10.5501 9.32002C10.2001 9.97627 9.71256 10.8825 8.68756 10.8825C7.66256 10.8825 7.17506 9.98252 6.81881 9.32002C6.51881 8.75752 6.31256 8.41377 6.0438 8.41377C5.77505 8.41377 5.5688 8.75752 5.2688 9.32002C4.9188 9.97627 4.4313 10.8825 3.4063 10.8825C2.3813 10.8825 1.8938 9.98252 1.5438 9.32002C1.3313 8.92627 1.1688 8.63877 1.00005 8.50127C0.862549 8.39502 0.768799 8.24502 0.768799 8.07627V7.97627C0.768799 7.48877 1.32505 7.20127 1.71255 7.49502C2.13755 7.82002 2.41255 8.32627 2.6313 8.73877C2.9313 9.30127 3.13755 9.64502 3.4063 9.64502C3.67505 9.64502 3.8813 9.30127 4.1813 8.73877C4.5313 8.08252 5.0188 7.17627 6.05005 7.17627C7.08131 7.17627 7.56256 8.07627 7.91881 8.73877C8.21881 9.30127 8.42506 9.64502 8.69381 9.64502C8.96256 9.64502 9.16881 9.30127 9.46881 8.73877C9.81881 8.08252 10.3063 7.17627 11.3313 7.17627C12.3563 7.17627 12.8438 8.07627 13.2001 8.73877C13.5001 9.30127 13.7063 9.64502 13.9751 9.64502C14.2438 9.64502 14.4501 9.30127 14.7501 8.73877C15.1001 8.08252 15.5876 7.17627 16.6188 7.17627C17.6501 7.17627 18.1313 8.07627 18.4876 8.73877C18.7001 9.13252 18.8626 9.42002 19.0376 9.55752C19.1751 9.66377 19.2688 9.81377 19.2688 9.98877V10.0888L19.2501 10.0825Z" fill="#6C707E"/>
<path d="M10.1624 17.5969C7.93113 17.5969 5.81238 16.8344 4.10613 15.4156C3.83113 15.1906 3.81238 14.7719 4.05613 14.5156C4.28113 14.2781 4.64988 14.2594 4.89988 14.4656C6.44363 15.7406 8.36863 16.4094 10.3936 16.3531C12.4124 16.2969 14.3061 15.5281 15.7811 14.1719C16.0186 13.9531 16.3874 13.9531 16.6249 14.1719C16.8811 14.4156 16.8811 14.8344 16.6249 15.0781C14.9311 16.6406 12.7561 17.5219 10.4311 17.5844C10.3436 17.5844 10.2561 17.5844 10.1686 17.5844L10.1624 17.5969Z" fill="#6C707E"/>
<path d="M3.71871 3.88119C3.45621 3.63744 3.46246 3.21869 3.71871 2.97494C5.46871 1.37494 7.68119 0.531191 9.91244 0.474941C12.1437 0.412441 14.3999 1.13119 16.2312 2.64369C16.5062 2.86869 16.5312 3.28744 16.2874 3.54369C16.0624 3.78119 15.6999 3.79994 15.4437 3.59369C13.8687 2.29369 11.9249 1.66869 9.99994 1.70619C8.07494 1.74369 6.09371 2.47494 4.55621 3.88744C4.31871 4.10619 3.94996 4.10619 3.71246 3.88744L3.71871 3.88119Z" fill="#6C707E"/>
<path d="M15.9988 18.375C16.1385 18.375 16.2569 18.3268 16.3542 18.2304C16.4514 18.1339 16.5 18.0159 16.5 17.8762C16.5 17.7365 16.4518 17.6181 16.3554 17.5208C16.2589 17.4236 16.1409 17.375 16.0012 17.375C15.8615 17.375 15.7431 17.4232 15.6458 17.5196C15.5486 17.6161 15.5 17.7341 15.5 17.8738C15.5 18.0135 15.5482 18.1319 15.6446 18.2292C15.7411 18.3264 15.8592 18.375 15.9988 18.375ZM16.0029 19.875C15.4524 19.875 14.934 19.7708 14.4479 19.5625C13.9618 19.3542 13.5364 19.0677 13.1719 18.7031C12.8073 18.3386 12.5208 17.9133 12.3125 17.4275C12.1042 16.9417 12 16.4226 12 15.8703C12 15.3179 12.1042 14.8004 12.3125 14.3177C12.5208 13.8351 12.8073 13.4114 13.1719 13.0469C13.5364 12.6823 13.9617 12.3958 14.4475 12.1875C14.9333 11.9792 15.4524 11.875 16.0047 11.875C16.5571 11.875 17.0746 11.9792 17.5573 12.1875C18.0399 12.3958 18.4636 12.6823 18.8281 13.0469C19.1927 13.4114 19.4792 13.8359 19.6875 14.3201C19.8958 14.8042 20 15.3216 20 15.8721C20 16.4226 19.8958 16.941 19.6875 17.4271C19.4792 17.9132 19.1927 18.3386 18.8281 18.7031C18.4636 19.0677 18.0391 19.3542 17.5549 19.5625C17.0707 19.7708 16.5534 19.875 16.0029 19.875ZM16.0334 14.1042C16.2024 14.1042 16.3536 14.1569 16.4871 14.2623C16.6207 14.3677 16.6875 14.4994 16.6875 14.6576C16.6875 14.8025 16.6434 14.934 16.5553 15.0521C16.4671 15.1701 16.3654 15.2778 16.25 15.375C16.0902 15.5139 15.9444 15.6667 15.8125 15.8333C15.6806 16 15.6146 16.1875 15.6146 16.3958C15.6146 16.5 15.6517 16.5868 15.7258 16.6562C15.8 16.7257 15.8865 16.7604 15.9854 16.7604C16.097 16.7604 16.1916 16.7239 16.2691 16.6511C16.3466 16.5781 16.3958 16.4861 16.4167 16.375C16.4444 16.2292 16.5069 16.1003 16.6042 15.9882C16.7014 15.8761 16.8056 15.7691 16.9167 15.6673C17.0764 15.5211 17.2118 15.3552 17.3229 15.1699C17.434 14.9846 17.4896 14.7856 17.4896 14.5729C17.4896 14.2188 17.3455 13.9288 17.0573 13.7031C16.7691 13.4774 16.4337 13.3646 16.0512 13.3646C15.7869 13.3646 15.5369 13.4236 15.3012 13.5417C15.0656 13.6598 14.871 13.8308 14.7171 14.0549C14.6626 14.1299 14.6476 14.2125 14.6719 14.3025C14.6962 14.3925 14.7465 14.4687 14.8229 14.5312C14.9201 14.6076 15.0243 14.6302 15.1354 14.5989C15.2465 14.5677 15.3402 14.5035 15.4167 14.4062C15.4931 14.309 15.5846 14.2344 15.6911 14.1823C15.7977 14.1302 15.9118 14.1042 16.0334 14.1042Z" fill="#6C707E"/>
</g>
</g>
</g>
<defs>
<clipPath id="clip0_86_13244">
<rect width="20" height="20" fill="white"/>
</clipPath>
</defs>
</svg>
