<!--

    SonarLint for IntelliJ IDEA
    Copyright (C) 2015-2025 SonarSource
    sonarlint@sonarsource.com

    This program is free software; you can redistribute it and/or
    modify it under the terms of the GNU Lesser General Public
    License as published by the Free Software Foundation; either
    version 3 of the License, or (at your option) any later version.

    This program is distributed in the hope that it will be useful,
    but WITHOUT ANY WARRANTY; without even the implied warranty of
    MERCHANTABILITY or FITNESS FOR A PARTICULAR PURPOSE.  See the GNU
    Lesser General Public License for more details.

    You should have received a copy of the GNU Lesser General Public
    License along with this program; if not, write to the Free Software
    Foundation, Inc., 51 Franklin Street, Fifth Floor, Boston, MA  02

-->
<svg width="142" height="157" viewBox="0 0 142 157" fill="none" xmlns="http://www.w3.org/2000/svg">
<path d="M136 151.152V89.6517C130 138.052 86.8333 150.985 66 151.152H136Z" fill="#F4F6FF"/>
<path d="M37.94 16.7898L20.9999 9.78728L24.8089 4.0001L37.94 16.7898Z" fill="#7B87D9"/>
<path d="M35.5 24.4641L25 27.9282L25 21L35.5 24.4641Z" fill="#7B87D9"/>
<path d="M112.549 37.0668L116.184 27.9999L121.282 32.6907L112.549 37.0668Z" fill="#7B87D9"/>
<path d="M112 43.4641L128.5 40L128.5 46.9282L112 43.4641Z" fill="#7B87D9"/>
<path d="M43.9317 10.5864L36.9999 2.57388L43.5095 -3.00407e-05L43.9317 10.5864Z" fill="#7B87D9"/>
<path d="M6 57.1517L6 152.152H14L14 57.1517H6Z" fill="#BDC6FF"/>
<path d="M20 73.1522L35 73.1522L35 65.1522L20 65.1522L20 73.1522Z" fill="#BDC6FF"/>
<path d="M43 73.1522L58 73.1522L58 65.1522L43 65.1522L43 73.1522Z" fill="#BDC6FF"/>
<path fill-rule="evenodd" clip-rule="evenodd" d="M7 157C3.13401 157 0 153.866 0 150V61C0 57.134 3.13401 54 7 54H35.5V60H7C6.44772 60 6 60.4477 6 61V77.8776H69V84.1226H6V150C6 150.552 6.44772 151 7 151H135C135.552 151 136 150.552 136 150V61C136 60.4477 135.552 60 135 60H124V54H135C138.866 54 142 57.134 142 61V150C142 153.866 138.866 157 135 157H7Z" fill="#6A7590"/>
<path fill-rule="evenodd" clip-rule="evenodd" d="M37.1052 112.499L43.0889 118.483L47.3315 114.24L41.3478 108.257L47.3312 102.273L43.0886 98.0304L37.1052 104.014L31.1215 98.0304L26.8789 102.273L32.8626 108.257L26.8789 114.24L31.1216 118.483L37.1052 112.499Z" fill="#BDC6FF" fill-opacity="0.4"/>
<path fill-rule="evenodd" clip-rule="evenodd" d="M78 112.152H53V106.152H78V112.152Z" fill="#BDC6FF" fill-opacity="0.4"/>
<path fill-rule="evenodd" clip-rule="evenodd" d="M49.0865 129.497L35.6141 142.536L26.8926 133.927L31.1076 129.657L35.6554 134.146L44.9137 125.185L49.0865 129.497Z" fill="#BDC6FF"/>
<path fill-rule="evenodd" clip-rule="evenodd" d="M78 137.341H53V131.341H78V137.341Z" fill="#BDC6FF"/>
<path fill-rule="evenodd" clip-rule="evenodd" d="M102.169 46.1113L94.9727 41.9564C95.8208 39.9434 96.4064 37.7925 96.6864 35.5469H105V29.4531H96.6864C96.4064 27.2074 95.8209 25.0566 94.9728 23.0436L102.169 18.8887L99.1224 13.6113L91.9216 17.7687C90.5784 16.0006 88.9994 14.4216 87.2313 13.0784L91.3887 5.87755L86.1114 2.83068L81.9565 10.0271C79.9434 9.17902 77.7926 8.59349 75.5469 8.31346V0H69.4531V8.31346C67.2074 8.5935 65.0566 9.17903 63.0435 10.0272L58.8886 2.8307L53.6113 5.87758L57.7687 13.0784C56.0006 14.4216 54.4216 16.0006 53.0784 17.7687L45.8775 13.6113L42.8307 18.8886L50.0272 23.0436C49.1791 25.0566 48.5936 27.2074 48.3136 29.4531H40V35.5469H48.3136C48.5936 37.7926 49.1792 39.9434 50.0273 41.9564L42.8308 46.1113L45.8776 51.3887L53.0785 47.2312C54.4217 48.9993 56.0007 50.5783 57.7688 51.9214L53.6114 59.1223L58.8887 62.1692L63.0436 54.9727C65.0567 55.8208 67.2075 56.4063 69.4531 56.6863V65H75.5469V56.6863C77.7925 56.4063 79.9433 55.8208 81.9563 54.9727L86.1113 62.1692L91.3886 59.1224L87.2312 51.9215C88.9992 50.5783 90.5783 48.9993 91.9215 47.2312L99.1223 51.3886L102.169 46.1113ZM72.5 51C82.7173 51 91 42.7173 91 32.5C91 22.2827 82.7173 14 72.5 14C62.2827 14 54 22.2827 54 32.5C54 42.7173 62.2827 51 72.5 51Z" fill="#7B87D9"/>
<path fill-rule="evenodd" clip-rule="evenodd" d="M59.9998 32.4999C59.9998 39.4035 65.5963 45 72.4999 45C79.4035 45 85 39.4035 85 32.4999H91C91 42.7172 82.7172 51 72.4999 51C62.2825 51 53.9998 42.7172 53.9998 32.4999L59.9998 32.4999Z" fill="#E1E6F3"/>
<path fill-rule="evenodd" clip-rule="evenodd" d="M92.2959 54.7408L97.0431 52L98.9726 55.3419C101.146 54.4761 103.518 54 106 54C108.538 54 110.96 54.4976 113.173 55.4005L115.136 52L119.883 54.7408L117.896 58.1838C121.489 61.0728 124.01 65.2424 124.764 70H129V76H124.764C124.002 80.81 121.434 85.019 117.776 87.9112L119.883 91.5604L115.136 94.3013L113.032 90.6564C110.857 91.5233 108.484 92 106 92C103.571 92 101.249 91.5443 99.1143 90.7139L97.0431 94.3013L92.2959 91.5604L94.3469 88.0079C90.6242 85.1132 88.007 80.8639 87.2355 76H83V70H87.2355C87.9987 65.1884 90.5681 60.9783 94.2272 58.0859L92.2959 54.7408ZM106 86C113.18 86 119 80.1797 119 73C119 65.8203 113.18 60 106 60C98.8203 60 93 65.8203 93 73C93 80.1797 98.8203 86 106 86Z" fill="#BDC6FF"/>
<circle cx="106" cy="73" r="5" fill="#7B87D9"/>
</svg>
