<!--

    SonarLint for IntelliJ IDEA
    Copyright (C) 2015-2024 SonarSource
    sonarlint@sonarsource.com

    This program is free software; you can redistribute it and/or
    modify it under the terms of the GNU Lesser General Public
    License as published by the Free Software Foundation; either
    version 3 of the License, or (at your option) any later version.

    This program is distributed in the hope that it will be useful,
    but WITHOUT ANY WARRANTY; without even the implied warranty of
    MERCHANTABILITY or FITNESS FOR A PARTICULAR PURPOSE.  See the GNU
    Lesser General Public License for more details.

    You should have received a copy of the GNU Lesser General Public
    License along with this program; if not, write to the Free Software
    Foundation, Inc., 51 Franklin Street, Fifth Floor, Boston, MA  02

-->
<svg width="40" height="40" viewBox="0 0 40 40" fill="none" xmlns="http://www.w3.org/2000/svg">
<path d="M37.4718 21.994C37.4718 22.9126 36.4179 23.4579 35.6849 22.9048C34.8786 22.2957 34.3642 21.3346 33.9465 20.5533C33.3741 19.484 32.9893 18.8362 32.4768 18.8362C31.9644 18.8362 31.5795 19.4859 31.0071 20.5533C30.34 21.7987 29.4272 23.5024 27.4799 23.5024C25.5326 23.5024 24.6198 21.7968 23.9546 20.5514C23.3842 19.484 22.9993 18.8342 22.4869 18.8342C21.9744 18.8342 21.5935 19.484 21.0211 20.5514C20.3559 21.7968 19.445 23.5024 17.4977 23.5024C15.5504 23.5024 14.6377 21.7968 13.9724 20.5514C13.402 19.484 13.0172 18.8342 12.5066 18.8342C11.9961 18.8342 11.6113 19.484 11.0408 20.5514C10.3756 21.7968 9.46286 23.5024 7.51748 23.5024C5.57209 23.5024 4.65935 21.7968 3.99413 20.5514C3.59383 19.803 3.28636 19.2616 2.96149 19.0044C2.70623 18.8013 2.52832 18.5209 2.52832 18.1961V18.0124C2.52832 17.0938 3.58223 16.5466 4.31707 17.1015C5.12152 17.7107 5.63591 18.6718 6.0536 19.453C6.62407 20.5205 7.00889 21.1702 7.51941 21.1702C8.02993 21.1702 8.41475 20.5205 8.98522 19.453C9.65044 18.2077 10.5632 16.5021 12.5086 16.5021C14.454 16.5021 15.3667 18.2077 16.0319 19.453C16.6024 20.5205 16.9872 21.1702 17.4977 21.1702C18.0082 21.1702 18.3931 20.5205 18.9635 19.453C19.6288 18.2077 20.5396 16.5021 22.4869 16.5021C24.4342 16.5021 25.3469 18.2077 26.0122 19.453C26.5826 20.5205 26.9675 21.1702 27.4799 21.1702C27.9924 21.1702 28.3772 20.5205 28.9496 19.453C29.6167 18.2077 30.5276 16.504 32.4768 16.504C34.4261 16.504 35.3369 18.2096 36.004 19.453C36.4043 20.2014 36.7118 20.7429 37.0367 21.002C37.2919 21.205 37.4718 21.4854 37.4718 21.8122V21.996V21.994Z" fill="white"/>
<path d="M20.3036 38C16.0918 38 12.087 36.5555 8.8595 33.885C8.34124 33.4557 8.2987 32.6725 8.76281 32.1832C9.18631 31.7365 9.88053 31.6998 10.3543 32.0923C13.2705 34.5018 16.9118 35.7646 20.7349 35.6602C24.5521 35.5577 28.1258 34.1054 30.9104 31.5431C31.3629 31.1274 32.0571 31.1254 32.5038 31.5489C32.9931 32.0131 32.9912 32.7982 32.4961 33.2545C29.2957 36.2036 25.1864 37.8743 20.7967 37.9923C20.6324 37.9962 20.468 38 20.3036 38Z" fill="white"/>
<path d="M8.13052 8.44205C7.64127 7.97794 7.6432 7.19089 8.14019 6.73258C11.4373 3.70235 15.6181 2.11858 19.8376 2.00642C24.0571 1.89426 28.3173 3.25177 31.7691 6.10217C32.2893 6.53147 32.3337 7.31659 31.8696 7.80777C31.4481 8.25447 30.7538 8.29121 30.2801 7.90059C27.302 5.44275 23.6356 4.26121 19.9981 4.33469C16.293 4.41011 12.615 5.7889 9.72009 8.44978C9.26758 8.86554 8.57529 8.86361 8.13052 8.44205Z" fill="white"/>
</svg>
