<!--

    SonarLint for IntelliJ IDEA
    Copyright (C) 2015-2025 SonarSource
    sonarlint@sonarsource.com

    This program is free software; you can redistribute it and/or
    modify it under the terms of the GNU Lesser General Public
    License as published by the Free Software Foundation; either
    version 3 of the License, or (at your option) any later version.

    This program is distributed in the hope that it will be useful,
    but WITHOUT ANY WARRANTY; without even the implied warranty of
    MERCHANTABILITY or FITNESS FOR A PARTICULAR PURPOSE.  See the GNU
    Lesser General Public License for more details.

    You should have received a copy of the GNU Lesser General Public
    License along with this program; if not, write to the Free Software
    Foundation, Inc., 51 Franklin Street, Fifth Floor, Boston, MA  02

-->
<svg width="64" height="65" viewBox="0 0 64 65" fill="none" xmlns="http://www.w3.org/2000/svg">
<g clip-path="url(#clip0_1_1362)">
<path fill-rule="evenodd" clip-rule="evenodd" d="M21.3341 35.6423C21.3341 29.8877 25.9991 25.2227 31.7537 25.2227H35.8831V29.2227H31.7537C28.2082 29.2227 25.3341 32.0968 25.3341 35.6423H21.3341ZM50.9807 29.2227H48.9341V25.2227H50.9807C57.6081 25.2227 62.9807 30.5952 62.9807 37.2227V55.0933C62.9807 56.1978 62.0852 57.0933 60.9807 57.0933H46.8537V53.0933H58.9807V37.2227C58.9807 32.8044 55.3989 29.2227 50.9807 29.2227ZM9.31543 60.4129H56.338V64.4129H9.31543V60.4129Z" fill="#5D6CD0"/>
<path fill-rule="evenodd" clip-rule="evenodd" d="M42.3464 30.9494L33.9852 31.4618C30.318 31.6865 27.459 34.7261 27.459 38.4001H23.459C23.459 32.612 27.9632 27.8233 33.7405 27.4693L42.1018 26.9569L42.3464 30.9494Z" fill="#D1D7FE"/>
<path fill-rule="evenodd" clip-rule="evenodd" d="M42.0861 26.9808C48.294 26.9808 53.3265 21.9483 53.3265 15.7404C53.3265 9.53249 48.294 4.5 42.0861 4.5C35.8782 4.5 30.8457 9.53249 30.8457 15.7404C30.8457 21.9483 35.8782 26.9808 42.0861 26.9808ZM42.0861 30.9808C50.5031 30.9808 57.3265 24.1574 57.3265 15.7404C57.3265 7.32335 50.5031 0.5 42.0861 0.5C33.6691 0.5 26.8457 7.32335 26.8457 15.7404C26.8457 24.1574 33.6691 30.9808 42.0861 30.9808Z" fill="#5D6CD0"/>
<path d="M4.10254 38.8027L8.08227 38.4005L10.3698 61.0352L6.39009 61.4374L4.10254 38.8027Z" fill="#D1D7FE"/>
<path fill-rule="evenodd" clip-rule="evenodd" d="M10.3944 34.9004H2.00001C1.43407 34.9004 0.894619 35.1402 0.515402 35.5603C0.136184 35.9804 -0.0472966 36.5415 0.0104458 37.1044L2.62682 62.6141C2.73146 63.6343 3.59082 64.41 4.61638 64.41H40.8C41.366 64.41 41.9054 64.1703 42.2846 63.7502C42.6638 63.3301 42.8473 62.769 42.7896 62.206L40.1732 36.6963C40.0686 35.6761 39.2092 34.9004 38.1837 34.9004H21.3255V38.9004H36.3783L38.5844 60.41H6.42175L4.21563 38.9004H8.085L10.3944 34.9004Z" fill="url(#paint0_linear_1_1362)"/>
<path fill-rule="evenodd" clip-rule="evenodd" d="M14.6588 43.986C15.4035 44.7934 16.0705 45.6937 16.6474 46.5499C16.7007 46.6289 16.7532 46.7076 16.8049 46.7857C17.2551 47.4664 17.6464 48.1105 17.9722 48.6469C18.5004 49.5165 18.8566 50.1028 19.0131 50.1028C19.1697 50.1028 19.5257 49.5166 20.0539 48.6471C20.3797 48.1107 20.7709 47.4665 21.2212 46.7856C21.2729 46.7074 21.3254 46.6288 21.3787 46.5498C21.9555 45.6936 22.6224 44.7934 23.3671 43.986C24.0469 43.2489 24.7996 42.5979 25.5203 42.0347C25.543 42.0169 25.5657 41.9992 25.5884 41.9816C26.2227 41.4893 26.8295 41.0654 27.3366 40.7111C28.1525 40.1412 28.7105 39.7514 28.7105 39.5465C28.7105 39.339 28.1485 38.9725 27.3282 38.4376C26.8034 38.0953 26.1727 37.6841 25.5159 37.2014C25.4931 37.1846 25.4702 37.1677 25.4473 37.1508C24.7486 36.6334 24.0235 36.0354 23.3671 35.354C22.6128 34.5709 21.9428 33.6838 21.3648 32.824C20.7133 31.8549 20.1786 30.9207 19.7715 30.2093C19.4228 29.5999 19.1677 29.1541 19.013 28.9902C18.8582 29.1541 18.6031 29.5999 18.2544 30.2093C17.8473 30.9206 17.3126 31.8549 16.6611 32.824C16.0831 33.6838 15.4132 34.5709 14.6588 35.354C14.0024 36.0354 13.2774 36.6334 12.5787 37.1508C12.5558 37.1677 12.5329 37.1846 12.51 37.2014C11.8532 37.6841 11.2226 38.0953 10.6977 38.4376C9.87742 38.9725 9.31543 39.339 9.31543 39.5465C9.31543 39.7514 9.87345 40.1412 10.6893 40.7111C11.1965 41.0654 11.8032 41.4893 12.4375 41.9816C12.4602 41.9992 12.4829 42.0169 12.5057 42.0347C13.2263 42.5979 13.979 43.2489 14.6588 43.986ZM15.8931 39.6389C16.4624 40.1273 17.0451 40.6734 17.5991 41.2741C18.1089 41.8267 18.5813 42.4054 19.013 42.9773C19.4446 42.4054 19.9171 41.8267 20.4268 41.2741C20.9808 40.6734 21.5635 40.1273 22.1329 39.6389C21.5827 39.1883 21.0214 38.6846 20.4862 38.129C19.9513 37.5737 19.4597 36.9886 19.013 36.406C18.5662 36.9886 18.0746 37.5737 17.5397 38.129C17.0045 38.6846 16.4432 39.1883 15.8931 39.6389Z" fill="url(#paint1_linear_1_1362)"/>
</g>
<defs>
<linearGradient id="paint0_linear_1_1362" x1="3.6024e-07" y1="49.6777" x2="42.0468" y2="49.6777" gradientUnits="userSpaceOnUse">
<stop stop-color="#D02FA0"/>
<stop offset="1" stop-color="#7E60E2"/>
</linearGradient>
<linearGradient id="paint1_linear_1_1362" x1="9.31543" y1="39.5626" x2="28.3692" y2="39.5626" gradientUnits="userSpaceOnUse">
<stop stop-color="#D02FA0"/>
<stop offset="1" stop-color="#7E60E2"/>
</linearGradient>
<clipPath id="clip0_1_1362">
<rect width="64" height="64" fill="white" transform="translate(0 0.5)"/>
</clipPath>
</defs>
</svg>
