<!--

    SonarLint for IntelliJ IDEA
    Copyright (C) 2015-2025 SonarSource Sàrl
    sonarlint@sonarsource.com

    This program is free software; you can redistribute it and/or
    modify it under the terms of the GNU Lesser General Public
    License as published by the Free Software Foundation; either
    version 3 of the License, or (at your option) any later version.

    This program is distributed in the hope that it will be useful,
    but WITHOUT ANY WARRANTY; without even the implied warranty of
    MERCHANTABILITY or FITNESS FOR A PARTICULAR PURPOSE.  See the GNU
    Lesser General Public License for more details.

    You should have received a copy of the GNU Lesser General Public
    License along with this program; if not, write to the Free Software
    Foundation, Inc., 51 Franklin Street, Fifth Floor, Boston, MA  02

-->
<svg width="14" height="14" viewBox="0 0 14 14" fill="none" xmlns="http://www.w3.org/2000/svg">
<path fill-rule="evenodd" clip-rule="evenodd" d="M7.00744 1.76863C7.00493 1.76243 7.00245 1.75622 7 1.75C6.99755 1.75622 6.99507 1.76243 6.99256 1.76863C6.99087 1.77282 6.98916 1.777 6.98744 1.78118C6.93705 1.90374 6.87667 2.02092 6.80727 2.13174C6.76947 2.19209 6.729 2.25056 6.68602 2.30698C6.55933 2.47329 6.41079 2.62183 6.24448 2.74852C6.18806 2.7915 6.12959 2.83197 6.06924 2.86977C5.95842 2.93917 5.84124 2.99955 5.71868 3.04994C5.7145 3.05166 5.71032 3.05337 5.70613 3.05506C5.69993 3.05757 5.69372 3.06005 5.6875 3.0625C5.69372 3.06495 5.69993 3.06743 5.70613 3.06994C5.71032 3.07163 5.7145 3.07334 5.71868 3.07506C5.84124 3.12545 5.95842 3.18583 6.06924 3.25523C6.12959 3.29303 6.18806 3.3335 6.24448 3.37648C6.41079 3.50317 6.55933 3.65171 6.68602 3.81802C6.729 3.87444 6.76947 3.93291 6.80727 3.99326C6.87667 4.10408 6.93705 4.22126 6.98744 4.34381C6.98916 4.348 6.99087 4.35218 6.99256 4.35637C6.99507 4.36257 6.99755 4.36878 7 4.375C7.00245 4.36878 7.00493 4.36257 7.00744 4.35637C7.00913 4.35218 7.01084 4.348 7.01256 4.34381C7.06295 4.22126 7.12333 4.10408 7.19273 3.99326C7.23053 3.93291 7.271 3.87444 7.31398 3.81802C7.44067 3.65171 7.58921 3.50317 7.75552 3.37648C7.81194 3.3335 7.87041 3.29303 7.93076 3.25523C8.04158 3.18583 8.15876 3.12545 8.28132 3.07506C8.2855 3.07334 8.28968 3.07163 8.29387 3.06994C8.30007 3.06743 8.30628 3.06495 8.3125 3.0625C8.30628 3.06005 8.30007 3.05757 8.29387 3.05506C8.28968 3.05337 8.2855 3.05166 8.28132 3.04994C8.15876 2.99955 8.04158 2.93917 7.93076 2.86977C7.87041 2.83197 7.81194 2.7915 7.75552 2.74852C7.58921 2.62183 7.44067 2.47329 7.31398 2.30698C7.271 2.25056 7.23053 2.19209 7.19273 2.13174C7.12333 2.02092 7.06295 1.90374 7.01256 1.78118C7.01084 1.777 7.00913 1.77282 7.00744 1.76863Z" fill="#CED0D6"/>
<path fill-rule="evenodd" clip-rule="evenodd" d="M2.7316 7.70341C2.51715 7.86678 2.29384 8.01925 2.06245 8.16004C1.6868 8.38861 1.28986 8.58638 0.875 8.75C1.28986 8.91362 1.6868 9.11139 2.06245 9.33996C2.29384 9.48075 2.51715 9.63322 2.7316 9.79659C3.28596 10.2189 3.78109 10.714 4.20341 11.2684C4.36678 11.4829 4.51925 11.7062 4.66004 11.9375C4.88861 12.3132 5.08638 12.7101 5.25 13.125C5.41362 12.7101 5.61139 12.3132 5.83996 11.9375C5.98075 11.7062 6.13322 11.4829 6.29659 11.2684C6.71891 10.714 7.21404 10.2189 7.7684 9.79659C7.98285 9.63322 8.20616 9.48075 8.43755 9.33996C8.8132 9.11139 9.21014 8.91362 9.625 8.75C9.21014 8.58638 8.8132 8.38861 8.43755 8.16004C8.20616 8.01925 7.98285 7.86678 7.7684 7.70341C7.21404 7.28109 6.71891 6.78596 6.29659 6.2316C6.13322 6.01715 5.98075 5.79384 5.83996 5.56245C5.61139 5.1868 5.41362 4.78986 5.25 4.375C5.08638 4.78986 4.88861 5.1868 4.66004 5.56245C4.51925 5.79384 4.36678 6.01715 4.20341 6.2316C3.7811 6.78596 3.28596 7.2811 2.7316 7.70341ZM5.25 7.71941C5.56668 8.08877 5.91123 8.43332 6.28059 8.75C5.91123 9.06668 5.56668 9.41123 5.25 9.78059C4.93332 9.41123 4.58877 9.06668 4.21941 8.75C4.58877 8.43332 4.93332 8.08877 5.25 7.71941Z" fill="#CED0D6"/>
<path fill-rule="evenodd" clip-rule="evenodd" d="M9.53549 6.36725C9.48564 6.31502 9.43458 6.26396 9.38235 6.21411C9.18765 6.02824 8.97675 5.85916 8.75185 5.70904C8.47878 5.52676 8.18505 5.37244 7.8746 5.25C8.18505 5.12756 8.47878 4.97324 8.75185 4.79096C8.97675 4.64084 9.18765 4.47176 9.38235 4.28589C9.43458 4.23604 9.48564 4.18498 9.53549 4.13275C9.72136 3.93805 9.89044 3.72715 10.0406 3.50225C10.2228 3.22918 10.3772 2.93545 10.4996 2.625C10.622 2.93545 10.7764 3.22918 10.9586 3.50225C11.1088 3.72715 11.2778 3.93805 11.4637 4.13275C11.5136 4.18498 11.5646 4.23604 11.6168 4.28589C11.8116 4.47176 12.0224 4.64084 12.2473 4.79096C12.5204 4.97324 12.8141 5.12756 13.1246 5.25C12.8141 5.37244 12.5204 5.52676 12.2473 5.70904C12.0224 5.85916 11.8116 6.02824 11.6168 6.21411C11.5646 6.26396 11.5136 6.31502 11.4637 6.36725C11.2778 6.56195 11.1088 6.77285 10.9586 6.99775C10.7764 7.27082 10.622 7.56455 10.4996 7.875C10.3772 7.56455 10.2228 7.27082 10.0406 6.99775C9.89044 6.77285 9.72136 6.56195 9.53549 6.36725Z" fill="#CED0D6"/>
</svg>
