<!--

    SonarLint for IntelliJ IDEA
    Copyright (C) 2015-2025 SonarSource
    sonarlint@sonarsource.com

    This program is free software; you can redistribute it and/or
    modify it under the terms of the GNU Lesser General Public
    License as published by the Free Software Foundation; either
    version 3 of the License, or (at your option) any later version.

    This program is distributed in the hope that it will be useful,
    but WITHOUT ANY WARRANTY; without even the implied warranty of
    MERCHANTABILITY or FITNESS FOR A PARTICULAR PURPOSE.  See the GNU
    Lesser General Public License for more details.

    You should have received a copy of the GNU Lesser General Public
    License along with this program; if not, write to the Free Software
    Foundation, Inc., 51 Franklin Street, Fifth Floor, Boston, MA  02

-->
<svg width="20" height="20" viewBox="0 0 20 20" fill="none" xmlns="http://www.w3.org/2000/svg">
<g clip-path="url(#clip0_232_467)">
<mask id="mask0_232_467" style="mask-type:luminance" maskUnits="userSpaceOnUse" x="0" y="0" width="20" height="20">
<path d="M20 0H0V20H20V0Z" fill="white"/>
</mask>
<g mask="url(#mask0_232_467)">
<mask id="mask1_232_467" style="mask-type:luminance" maskUnits="userSpaceOnUse" x="0" y="0" width="20" height="20">
<path d="M20 0H0V20H20V0Z" fill="white"/>
</mask>
<g mask="url(#mask1_232_467)">
<mask id="mask2_232_467" style="mask-type:luminance" maskUnits="userSpaceOnUse" x="0" y="0" width="20" height="20">
<path d="M20 0H0V20H20V0Z" fill="white"/>
</mask>
<g mask="url(#mask2_232_467)">
<path d="M18.606 9.74756C18.606 10.2181 18.069 10.4956 17.695 10.2121C17.2849 9.89842 17.0194 9.40978 16.8084 9.01166C16.5188 8.46273 16.3197 8.13699 16.0604 8.13699C15.8009 8.13699 15.6019 8.46876 15.3124 9.01166C14.9746 9.64504 14.5041 10.5197 13.5087 10.5197C12.5135 10.5197 12.0489 9.65107 11.7052 9.01166C11.4156 8.46876 11.2165 8.13699 10.9572 8.13699C10.6977 8.13699 10.4987 8.46876 10.2092 9.01166C9.87138 9.64504 9.40083 10.5197 8.41156 10.5197C7.42228 10.5197 6.95178 9.65107 6.60794 9.01166C6.3184 8.46876 6.11934 8.13699 5.85994 8.13699C5.60056 8.13699 5.4015 8.46876 5.11196 9.01166C4.77416 9.64504 4.30365 10.5197 3.31437 10.5197C2.3251 10.5197 1.85459 9.65107 1.51679 9.01166C1.31169 8.63163 1.15486 8.35415 0.99199 8.22145C0.859281 8.1189 0.768799 7.97413 0.768799 7.81126V7.71474C0.768799 7.24424 1.30566 6.96676 1.67966 7.25027C2.08984 7.56394 2.35526 8.05254 2.56638 8.45067C2.85593 8.99356 3.05499 9.32533 3.31437 9.32533C3.57376 9.32533 3.77282 8.99356 4.06236 8.45067C4.40016 7.81729 4.87067 6.94263 5.86598 6.94263C6.86129 6.94263 7.32577 7.81126 7.6696 8.45067C7.95915 8.99356 8.15821 9.32533 8.41759 9.32533C8.67697 9.32533 8.87604 8.99356 9.16558 8.45067C9.50338 7.81729 9.97388 6.94263 10.9632 6.94263C11.9524 6.94263 12.4229 7.81126 12.7668 8.45067C13.0564 8.99356 13.2554 9.32533 13.5148 9.32533C13.7741 9.32533 13.9733 8.99356 14.2628 8.45067C14.6006 7.81729 15.0711 6.94263 16.0664 6.94263C17.0617 6.94263 17.5261 7.81126 17.87 8.45067C18.0751 8.83069 18.232 9.10817 18.4009 9.24088C18.5336 9.34343 18.624 9.4882 18.624 9.6571V9.75364L18.606 9.74756Z" fill="#CED0D6"/>
<path d="M9.83499 17C7.68149 17 5.63658 16.2641 3.9898 14.8947C3.72439 14.6776 3.70629 14.2735 3.94155 14.0261C4.1587 13.7969 4.5146 13.7788 4.75589 13.9779C6.24583 15.2084 8.10374 15.8539 10.0581 15.7996C12.0066 15.7453 13.8343 15.0033 15.2579 13.6944C15.4871 13.4832 15.843 13.4832 16.0722 13.6944C16.3195 13.9296 16.3195 14.3338 16.0722 14.569C14.4375 16.077 12.3383 16.9276 10.0943 16.988C10.0099 16.988 9.92542 16.988 9.84097 16.988L9.83499 17Z" fill="#CED0D6"/>
<path d="M3.61589 3.76234C3.36254 3.52708 3.36857 3.12293 3.61589 2.88767C5.30489 1.34344 7.44026 0.529099 9.59374 0.47481C11.7472 0.414488 13.9248 1.10819 15.6923 2.56797C15.9577 2.78513 15.9818 3.18928 15.7465 3.4366C15.5294 3.66582 15.1795 3.68392 14.9322 3.48486C13.4121 2.23017 11.5361 1.62695 9.67819 1.66314C7.82029 1.69934 5.90811 2.4051 4.4242 3.76837C4.19498 3.97949 3.83908 3.97949 3.60986 3.76837L3.61589 3.76234Z" fill="#CED0D6"/>
<path d="M15.4987 18.3125C15.6558 18.3125 15.789 18.2583 15.8985 18.1498C16.0078 18.0413 16.0625 17.9085 16.0625 17.7513C16.0625 17.5942 16.0083 17.461 15.8998 17.3515C15.7913 17.2422 15.6585 17.1875 15.5013 17.1875C15.3442 17.1875 15.211 17.2417 15.1015 17.3502C14.9922 17.4587 14.9375 17.5915 14.9375 17.7487C14.9375 17.9058 14.9917 18.039 15.1002 18.1485C15.2087 18.2578 15.3416 18.3125 15.4987 18.3125ZM15.5033 20C14.8839 20 14.3007 19.8828 13.7539 19.6484C13.207 19.4141 12.7284 19.0918 12.3184 18.6816C11.9082 18.2716 11.5859 17.7931 11.3516 17.2466C11.1172 16.7 11 16.1161 11 15.4947C11 14.8733 11.1172 14.2911 11.3516 13.748C11.5859 13.2051 11.9082 12.7284 12.3184 12.3184C12.7284 11.9082 13.2069 11.5859 13.7534 11.3516C14.3 11.1172 14.8839 11 15.5053 11C16.1267 11 16.7089 11.1172 17.252 11.3516C17.7949 11.5859 18.2716 11.9082 18.6816 12.3184C19.0918 12.7284 19.4141 13.206 19.6484 13.7507C19.8828 14.2953 20 14.8774 20 15.4967C20 16.116 19.8828 16.6992 19.6484 17.2461C19.4141 17.793 19.0918 18.2716 18.6816 18.6816C18.2716 19.0918 17.794 19.4141 17.2493 19.6484C16.7045 19.8828 16.1226 20 15.5033 20ZM15.5376 13.5079C15.7277 13.5079 15.8978 13.5671 16.048 13.6857C16.1983 13.8043 16.2734 13.9525 16.2734 14.1304C16.2734 14.2934 16.2238 14.4414 16.1247 14.5742C16.0255 14.707 15.9111 14.8282 15.7812 14.9375C15.6015 15.0938 15.4374 15.2657 15.2891 15.4531C15.1407 15.6406 15.0664 15.8516 15.0664 16.0859C15.0664 16.2031 15.1082 16.3008 15.1915 16.3789C15.275 16.457 15.3723 16.4961 15.4836 16.4961C15.6091 16.4961 15.7156 16.455 15.8027 16.3731C15.8899 16.291 15.9453 16.1875 15.9688 16.0625C16 15.8985 16.0703 15.7535 16.1797 15.6274C16.2891 15.5012 16.4063 15.3809 16.5313 15.2663C16.711 15.1019 16.8633 14.9152 16.9883 14.7068C17.1133 14.4983 17.1758 14.2744 17.1758 14.0351C17.1758 13.6368 17.0137 13.3105 16.6895 13.0566C16.3652 12.8027 15.9879 12.6758 15.5576 12.6758C15.2603 12.6758 14.979 12.7422 14.7138 12.875C14.4488 13.0079 14.2299 13.2003 14.0567 13.4524C13.9954 13.5368 13.9785 13.6297 14.0059 13.7309C14.0332 13.8322 14.0898 13.9179 14.1758 13.9882C14.2851 14.0742 14.4023 14.0996 14.5273 14.0644C14.6523 14.0293 14.7577 13.9571 14.8438 13.8476C14.9297 13.7383 15.0327 13.6543 15.1525 13.5957C15.2724 13.5371 15.4008 13.5079 15.5376 13.5079Z" fill="#CED0D6"/>
</g>
</g>
</g>
</g>
<defs>
<clipPath id="clip0_232_467">
<rect width="20" height="20" fill="white"/>
</clipPath>
</defs>
</svg>
