<!--

    SonarLint for IntelliJ IDEA
    Copyright (C) 2015-2025 SonarSource
    sonarlint@sonarsource.com

    This program is free software; you can redistribute it and/or
    modify it under the terms of the GNU Lesser General Public
    License as published by the Free Software Foundation; either
    version 3 of the License, or (at your option) any later version.

    This program is distributed in the hope that it will be useful,
    but WITHOUT ANY WARRANTY; without even the implied warranty of
    MERCHANTABILITY or FITNESS FOR A PARTICULAR PURPOSE.  See the GNU
    Lesser General Public License for more details.

    You should have received a copy of the GNU Lesser General Public
    License along with this program; if not, write to the Free Software
    Foundation, Inc., 51 Franklin Street, Fifth Floor, Boston, MA  02

-->
<svg width="16" height="16" viewBox="0 0 16 16" fill="none" xmlns="http://www.w3.org/2000/svg">
<g clip-path="url(#clip0_232_484)">
<mask id="mask0_232_484" style="mask-type:luminance" maskUnits="userSpaceOnUse" x="0" y="0" width="16" height="16">
<path d="M16 0H0V16H16V0Z" fill="white"/>
</mask>
<g mask="url(#mask0_232_484)">
<mask id="mask1_232_484" style="mask-type:luminance" maskUnits="userSpaceOnUse" x="0" y="0" width="16" height="16">
<path d="M16 0H0V16H16V0Z" fill="white"/>
</mask>
<g mask="url(#mask1_232_484)">
<mask id="mask2_232_484" style="mask-type:luminance" maskUnits="userSpaceOnUse" x="0" y="0" width="16" height="16">
<path d="M16 0H0V16H16V0Z" fill="white"/>
</mask>
<g mask="url(#mask2_232_484)">
<path d="M13.3492 6.9997C13.3492 7.3356 12.9659 7.5337 12.6989 7.33129C12.4061 7.10736 12.2166 6.75853 12.0659 6.47431C11.8592 6.08242 11.7171 5.84987 11.5319 5.84987C11.3467 5.84987 11.2046 6.08673 10.9979 6.47431C10.7567 6.92649 10.4208 7.55092 9.71024 7.55092C8.99967 7.55092 8.66808 6.93079 8.42261 6.47431C8.2159 6.08673 8.07379 5.84987 7.88861 5.84987C7.70343 5.84987 7.56132 6.08673 7.35461 6.47431C7.11345 6.92649 6.77754 7.55092 6.07128 7.55092C5.36502 7.55092 5.02912 6.93079 4.78365 6.47431C4.57694 6.08673 4.43483 5.84987 4.24964 5.84987C4.06446 5.84987 3.92235 6.08673 3.71564 6.47431C3.47448 6.92649 3.13858 7.55092 2.43232 7.55092C1.72606 7.55092 1.39015 6.93079 1.14899 6.47431C1.00257 6.203 0.890604 6.0049 0.774329 5.91016C0.679587 5.83695 0.61499 5.7336 0.61499 5.61732V5.54842C0.61499 5.21252 0.998265 5.01442 1.26527 5.21682C1.5581 5.44076 1.74759 5.78958 1.89832 6.07381C2.10503 6.46139 2.24714 6.69824 2.43232 6.69824C2.61749 6.69824 2.75961 6.46139 2.96632 6.07381C3.20748 5.62163 3.54338 4.99719 4.25395 4.99719C4.96452 4.99719 5.29612 5.61732 5.54159 6.07381C5.7483 6.46139 5.89041 6.69824 6.07559 6.69824C6.26077 6.69824 6.40288 6.46139 6.60959 6.07381C6.85075 5.62163 7.18665 4.99719 7.89291 4.99719C8.59917 4.99719 8.93508 5.61732 9.18055 6.07381C9.38726 6.46139 9.52937 6.69824 9.71455 6.69824C9.89972 6.69824 10.0418 6.46139 10.2485 6.07381C10.4897 5.62163 10.8256 4.99719 11.5362 4.99719C12.2467 4.99719 12.5783 5.61732 12.8238 6.07381C12.9702 6.34511 13.0822 6.54321 13.2028 6.63795C13.2975 6.71116 13.3621 6.81452 13.3621 6.9351V7.004L13.3492 6.9997Z" fill="#CED0D6"/>
<path d="M7.08755 12.177C5.55015 12.177 4.09026 11.6516 2.91459 10.674C2.72511 10.519 2.71219 10.2304 2.88014 10.0539C3.03517 9.89023 3.28926 9.87731 3.46151 10.0194C4.52521 10.8979 5.8516 11.3587 7.24689 11.32C8.63788 11.2812 9.94278 10.7515 10.9591 9.81702C11.1227 9.6663 11.3768 9.6663 11.5405 9.81702C11.717 9.98498 11.717 10.2735 11.5405 10.4415C10.3734 11.5181 8.87478 12.1253 7.27273 12.1684C7.21244 12.1684 7.15215 12.1684 7.09186 12.1684L7.08755 12.177Z" fill="#CED0D6"/>
<path d="M2.64762 2.72655C2.46675 2.5586 2.47106 2.27008 2.64762 2.10213C3.85343 0.999674 5.3779 0.418295 6.91531 0.379536C8.45271 0.336472 10.0074 0.831713 11.2692 1.87388C11.4587 2.02891 11.4759 2.31744 11.3079 2.49401C11.1529 2.65765 10.9031 2.67057 10.7266 2.52846C9.64134 1.63271 8.30199 1.20207 6.9756 1.22791C5.64921 1.25375 4.28408 1.7576 3.22469 2.73086C3.06104 2.88159 2.80696 2.88159 2.64332 2.73086L2.64762 2.72655Z" fill="#CED0D6"/>
<path d="M11.4986 14.3125C11.6558 14.3125 11.789 14.2584 11.8984 14.1498C12.0078 14.0412 12.0625 13.9085 12.0625 13.7514C12.0625 13.5942 12.0082 13.461 11.8998 13.3516C11.7912 13.2422 11.6585 13.1875 11.5013 13.1875C11.3442 13.1875 11.2109 13.2418 11.1015 13.3502C10.9922 13.4588 10.9375 13.5915 10.9375 13.7487C10.9375 13.9058 10.9916 14.0391 11.1002 14.1485C11.2088 14.2578 11.3415 14.3125 11.4986 14.3125ZM11.5032 16C10.8839 16 10.3008 15.8827 9.75386 15.6484C9.20697 15.414 8.72842 15.0917 8.31836 14.6816C7.90816 14.2714 7.58584 13.7932 7.35156 13.2466C7.11721 12.7001 7 12.1161 7 11.4947C7 10.8732 7.11721 10.291 7.35156 9.74809C7.58584 9.20514 7.90816 8.72842 8.31836 8.31836C8.72842 7.9083 9.20683 7.58591 9.75344 7.35156C10.2999 7.11721 10.8839 7 11.5053 7C12.1268 7 12.709 7.11721 13.2519 7.35156C13.7949 7.58591 14.2714 7.9083 14.6816 8.31836C15.0917 8.72842 15.414 9.20599 15.6484 9.75063C15.8827 10.2954 16 10.8775 16 11.4968C16 12.1161 15.8827 12.6993 15.6484 13.2461C15.414 13.793 15.0917 14.2714 14.6816 14.6816C14.2714 15.0917 13.794 15.414 13.2492 15.6484C12.7046 15.8827 12.1225 16 11.5032 16ZM11.5375 9.50777C11.7277 9.50777 11.8977 9.56711 12.048 9.6858C12.1982 9.80434 12.2734 9.95256 12.2734 10.1305C12.2734 10.2934 12.2238 10.4414 12.1247 10.5741C12.0255 10.707 11.911 10.8281 11.7813 10.9375C11.6015 11.0937 11.4374 11.2656 11.2891 11.453C11.1406 11.6406 11.0663 11.8516 11.0663 12.0858C11.0663 12.2031 11.1081 12.3007 11.1915 12.3789C11.275 12.457 11.3723 12.496 11.4835 12.496C11.6091 12.496 11.7154 12.4551 11.8028 12.3731C11.89 12.291 11.9452 12.1875 11.9687 12.0625C11.9999 11.8985 12.0702 11.7534 12.1796 11.6274C12.289 11.5013 12.4062 11.3809 12.5312 11.2663C12.7109 11.1019 12.8632 10.9153 12.9882 10.7067C13.1133 10.4982 13.1757 10.2743 13.1757 10.0351C13.1757 9.63672 13.0137 9.31047 12.6894 9.05664C12.3653 8.80267 11.988 8.67583 11.5575 8.67583C11.2602 8.67583 10.979 8.7422 10.7139 8.87509C10.4488 9.00784 10.2299 9.20036 10.0566 9.45236C9.99545 9.53688 9.97844 9.62969 10.0059 9.73094C10.0331 9.83219 10.0898 9.91797 10.1757 9.98828C10.2851 10.0742 10.4023 10.0995 10.5273 10.0644C10.6523 10.0292 10.7578 9.95706 10.8437 9.84766C10.9296 9.73825 11.0326 9.6543 11.1525 9.59566C11.2725 9.53702 11.4007 9.50777 11.5375 9.50777Z" fill="#CED0D6"/>
</g>
</g>
</g>
</g>
<defs>
<clipPath id="clip0_232_484">
<rect width="16" height="16" fill="white"/>
</clipPath>
</defs>
</svg>
