<svg width="16" height="16" viewBox="0 0 16 16" fill="none" xmlns="http://www.w3.org/2000/svg">
<path d="M7.99648 11.2C8.16549 11.2 8.30833 11.1425 8.425 11.0275C8.54167 10.9125 8.6 10.77 8.6 10.6V7.8C8.6 7.63 8.54284 7.4875 8.42852 7.3725C8.31418 7.2575 8.17252 7.2 8.00352 7.2C7.83451 7.2 7.69167 7.2575 7.575 7.3725C7.45833 7.4875 7.4 7.63 7.4 7.8V10.6C7.4 10.77 7.45716 10.9125 7.57148 11.0275C7.68582 11.1425 7.82748 11.2 7.99648 11.2ZM7.99648 6C8.16549 6 8.30833 5.94284 8.425 5.82852C8.54167 5.71418 8.6 5.57252 8.6 5.40352C8.6 5.23451 8.54284 5.09167 8.42852 4.975C8.31418 4.85833 8.17252 4.8 8.00352 4.8C7.83451 4.8 7.69167 4.85716 7.575 4.97148C7.45833 5.08582 7.4 5.22748 7.4 5.39648C7.4 5.56549 7.45716 5.70833 7.57148 5.825C7.68582 5.94167 7.82748 6 7.99648 6ZM8.0046 14.4C7.12376 14.4 6.29444 14.2333 5.51667 13.9C4.73889 13.5667 4.05833 13.1083 3.475 12.525C2.89167 11.9417 2.43333 11.2613 2.1 10.484C1.76667 9.70671 1.6 8.87616 1.6 7.99237C1.6 7.10857 1.76667 6.28056 2.1 5.50833C2.43333 4.73611 2.89167 4.05833 3.475 3.475C4.05833 2.89167 4.73866 2.43333 5.51597 2.1C6.29329 1.76667 7.12385 1.6 8.00763 1.6C8.89143 1.6 9.71944 1.76667 10.4917 2.1C11.2639 2.43333 11.9417 2.89167 12.525 3.475C13.1083 4.05833 13.5667 4.73736 13.9 5.51207C14.2333 6.28679 14.4 7.11457 14.4 7.9954C14.4 8.87624 14.2333 9.70555 13.9 10.4833C13.5667 11.2611 13.1083 11.9417 12.525 12.525C11.9417 13.1083 11.2626 13.5667 10.4879 13.9C9.71321 14.2333 8.88543 14.4 8.0046 14.4Z" fill="#4595CB"/>
</svg>
