<!--

    SonarLint for IntelliJ IDEA
    Copyright (C) 2015-2025 SonarSource
    sonarlint@sonarsource.com

    This program is free software; you can redistribute it and/or
    modify it under the terms of the GNU Lesser General Public
    License as published by the Free Software Foundation; either
    version 3 of the License, or (at your option) any later version.

    This program is distributed in the hope that it will be useful,
    but WITHOUT ANY WARRANTY; without even the implied warranty of
    MERCHANTABILITY or FITNESS FOR A PARTICULAR PURPOSE.  See the GNU
    Lesser General Public License for more details.

    You should have received a copy of the GNU Lesser General Public
    License along with this program; if not, write to the Free Software
    Foundation, Inc., 51 Franklin Street, Fifth Floor, Boston, MA  02

-->
<svg width="16" height="16" viewBox="0 0 16 16" fill="none" xmlns="http://www.w3.org/2000/svg">
<path fill-rule="evenodd" clip-rule="evenodd" d="M8 14.375C11.5208 14.375 14.375 11.5208 14.375 8C14.375 4.47918 11.5208 1.625 8 1.625C4.47918 1.625 1.625 4.47918 1.625 8C1.625 11.5208 4.47918 14.375 8 14.375ZM4.94899 7.55761L7.46964 10.0783C7.76253 10.3711 8.2374 10.3711 8.5303 10.0783L11.0509 7.55761C11.3438 7.26472 11.3438 6.78984 11.0509 6.49695C10.758 6.20406 10.2832 6.20406 9.99028 6.49695L7.99997 8.48727L6.00965 6.49695C5.71676 6.20406 5.24188 6.20406 4.94899 6.49695C4.6561 6.78984 4.6561 7.26472 4.94899 7.55761Z" fill="#F5B840"/>
</svg>
